<?xml version="1.0" standalone="no"?>
<!DOCTYPE svg PUBLIC "-//W3C//DTD SVG 1.1//EN" "http://www.w3.org/Graphics/SVG/1.1/DTD/svg11.dtd" >
<svg xmlns="http://www.w3.org/2000/svg">
<metadata></metadata>
<defs>
<font id="sanchezregular" horiz-adv-x="1138" >
<font-face units-per-em="2048" ascent="1536" descent="-512" />
<missing-glyph horiz-adv-x="512" />
<glyph unicode="&#xfb01;" horiz-adv-x="1341" d="M76 895v88q0 25 24 25h119v127q0 171 87 259.5t243 88.5q115 0 207 -82q21 -18 4 -35l-47 -63q-20 -17 -37 -5q-11 11 -41.5 25t-69.5 14q-84 0 -130 -52t-46 -152v-125h733q25 0 25 -25v-846h108q27 0 27 -24v-88q0 -25 -27 -25h-393q-24 0 -24 25v88q0 24 24 24h115 v733h-588v-733h180q25 0 25 -24v-88q0 -25 -25 -25h-465q-24 0 -24 25v88q0 24 24 24h115v733h-119q-24 0 -24 25zM932 1315q0 51 35 87t86 36q50 0 85.5 -36t35.5 -87q0 -49 -35.5 -84t-85.5 -35q-51 0 -86 34.5t-35 84.5z" />
<glyph unicode="&#xfb02;" horiz-adv-x="1343" d="M76 895v88q0 25 24 25h119v127q0 171 87 259.5t243 88.5q115 0 207 -82q21 -18 4 -35l-47 -63q-20 -17 -37 -5q-11 11 -41.5 25t-69.5 14q-84 0 -130 -52t-46 -152v-125h262q25 0 25 -25v-88q0 -25 -25 -25h-262v-733h180q25 0 25 -24v-88q0 -25 -25 -25h-465 q-24 0 -24 25v88q0 24 24 24h115v733h-119q-24 0 -24 25zM831 25v88q0 24 25 24h115v1196h-97q-24 0 -24 25v88q0 24 24 24h209q32 0 45 -12t13 -39v-1282h108q25 0 25 -24v-88q0 -25 -25 -25h-393q-25 0 -25 25z" />
<glyph unicode="&#xfb03;" horiz-adv-x="2088" d="M76 895v88q0 25 24 25h119v127q0 171 87 259.5t243 88.5q115 0 207 -82q21 -18 4 -35l-47 -63q-20 -17 -37 -5q-11 11 -41.5 25t-69.5 14q-84 0 -130 -52t-46 -152v-125h580v127q0 171 85.5 259.5t241.5 88.5q117 0 209 -82q18 -18 4 -35l-49 -63q-18 -17 -35 -5 q-49 39 -112 39q-84 0 -129 -52t-45 -152v-125h731q26 0 26 -25v-846h109q25 0 25 -24v-88q0 -25 -25 -25h-393q-25 0 -25 25v88q0 24 25 24h114v733h-587v-733h178q26 0 26 -24v-88q0 -25 -26 -25h-463q-27 0 -27 25v88q0 24 27 24h115v733h-580v-733h180q25 0 25 -24v-88 q0 -25 -25 -25h-465q-24 0 -24 25v88q0 24 24 24h115v733h-119q-24 0 -24 25zM1681 1315q0 51 35 87t86 36q50 0 85.5 -36t35.5 -87q0 -49 -35.5 -84t-85.5 -35q-51 0 -86 34.5t-35 84.5z" />
<glyph unicode="&#xfb04;" horiz-adv-x="2093" d="M76 895v88q0 25 24 25h119v127q0 171 87 259.5t243 88.5q115 0 207 -82q21 -18 4 -35l-47 -63q-20 -17 -37 -5q-11 11 -41.5 25t-69.5 14q-84 0 -130 -52t-46 -152v-125h580v127q0 171 85.5 259.5t241.5 88.5q117 0 209 -82q18 -18 4 -35l-49 -63q-18 -17 -35 -5 q-49 39 -112 39q-84 0 -129 -52t-45 -152v-125h260q26 0 26 -25v-88q0 -25 -26 -25h-260v-733h178q26 0 26 -24v-88q0 -25 -26 -25h-463q-27 0 -27 25v88q0 24 27 24h115v733h-580v-733h180q25 0 25 -24v-88q0 -25 -25 -25h-465q-24 0 -24 25v88q0 24 24 24h115v733h-119 q-24 0 -24 25zM1579 25v88q0 24 27 24h112v1196h-96q-25 0 -25 25v88q0 24 25 24h211q30 0 42.5 -12t12.5 -39v-1282h109q26 0 26 -24v-88q0 -25 -26 -25h-391q-27 0 -27 25z" />
<glyph horiz-adv-x="0" />
<glyph unicode="&#xd;" horiz-adv-x="2048" />
<glyph unicode=" "  horiz-adv-x="512" />
<glyph unicode="&#x09;" horiz-adv-x="512" />
<glyph unicode="&#xa0;" horiz-adv-x="512" />
<glyph unicode="!" horiz-adv-x="565" d="M176 8q0 46 31.5 77.5t77.5 31.5q45 0 76.5 -31.5t31.5 -77.5q0 -45 -31.5 -76.5t-76.5 -31.5q-46 0 -77.5 31t-31.5 77zM193 1532q0 24 26 24h129q25 0 25 -24l-19 -1204q0 -25 -24 -25h-92q-27 0 -27 25z" />
<glyph unicode="&#x22;" horiz-adv-x="657" d="M123 1509q0 12 7.5 19.5t19.5 7.5h88q12 0 20 -7.5t8 -19.5l-10 -333q-3 -27 -29 -27h-67q-12 0 -20.5 7.5t-8.5 19.5zM391 1509q0 12 8.5 19.5t20.5 7.5h88q12 0 20.5 -7.5t8.5 -19.5l-13 -333q0 -27 -26 -27h-70q-12 0 -19.5 7.5t-7.5 19.5z" />
<glyph unicode="#" horiz-adv-x="1253" d="M78 254v76q0 24 24 24h201l74 258h-162q-12 0 -19.5 7.5t-7.5 19.5v74q0 26 27 26h199l65 224q7 26 33 26h100q26 0 19 -26l-66 -224h269l63 224q10 26 35 26h100q24 0 17 -26l-66 -224h166q25 0 25 -26v-74q0 -27 -25 -27h-203l-74 -258h166q25 0 25 -24v-76 q0 -25 -25 -25h-200l-64 -219q-6 -24 -33 -24h-100q-24 0 -18 24l63 219h-268l-62 -219q-9 -24 -32 -24h-101q-27 0 -18 24l61 219h-164q-24 0 -24 25zM453 354h268l76 258h-269z" />
<glyph unicode="$" horiz-adv-x="1349" d="M100 88v385q0 12 7 19.5t18 7.5h127q11 0 17.5 -7.5t6.5 -19.5v-12q0 -12 13.5 -44t47 -78t81 -87t126 -70.5t171.5 -29.5q158 0 247 64.5t89 182.5q0 56 -31 98t-83.5 69.5t-120.5 49t-143 41t-150 41t-143 54t-120.5 75t-83.5 108.5t-31 150q0 167 122.5 279t332.5 119 v141q0 25 25 25h110q25 0 25 -25v-162q179 -24 266 -141l-4 80q0 24 27 24h110q27 0 27 -24v-375q0 -27 -27 -27h-125q-24 0 -24 27v37q-1 27 -13 58t-40.5 66t-69 63t-105.5 46.5t-143 18.5q-136 0 -218.5 -65t-82.5 -165q0 -59 31.5 -104.5t85 -74.5t122.5 -51.5 t145.5 -42t153 -40.5t145.5 -52t122.5 -71.5t85 -103.5t31.5 -144q0 -175 -120 -290.5t-362 -124.5v-133q0 -25 -26 -25h-111q-25 0 -25 25v151q-229 30 -352 221h-6l4 -137q3 -25 -24 -25h-113q-25 0 -25 25z" />
<glyph unicode="%" horiz-adv-x="1529" d="M70 1114q0 163 80.5 266t216.5 103q137 0 217 -103t80 -266q0 -171 -79 -275t-218 -104t-218 104t-79 275zM193 1110q0 -124 46 -193t128 -69t128 68.5t46 193.5q0 126 -45 193t-129 67q-82 0 -128 -68t-46 -192zM434 -127l496 1659q6 24 35 24h77q25 0 19 -24 l-498 -1659q-6 -25 -31 -25h-79q-25 0 -19 25zM864 365q0 162 80.5 265t216.5 103t215.5 -102.5t79.5 -265.5q0 -172 -78 -275.5t-217 -103.5t-218 104t-79 275zM987 360q0 -125 45.5 -193.5t128.5 -68.5q82 0 128 68.5t46 193.5t-46 193t-128 68q-83 0 -128.5 -68 t-45.5 -193z" />
<glyph unicode="&#x26;" horiz-adv-x="1386" d="M92 399q0 300 330 439q-47 54 -83 135.5t-36 175.5q0 155 97 244.5t245 89.5q65 0 124 -19t107.5 -57t77.5 -101.5t29 -144.5q0 -60 -19 -112t-45.5 -88t-71.5 -71t-80.5 -56t-88.5 -48l262 -370q26 53 34.5 123t8.5 186q0 25 27 25h282q25 0 25 -25v-100q0 -25 -25 -25 h-143q-8 -183 -100 -342l73 -108h129q27 0 27 -25v-100q0 -25 -27 -25h-176q-59 0 -104 68l-39 57q-133 -139 -357 -139q-121 0 -216.5 37t-152 97.5t-85.5 132t-29 146.5zM266 403q0 -125 89.5 -195.5t222.5 -70.5q96 0 158 24t108 85l-326 459q-30 -13 -50.5 -23.5 t-54 -30t-56 -42t-45.5 -52.5t-34.5 -69.5t-11.5 -84.5zM477 1147q0 -25 6.5 -51t13 -44t22 -43.5t23 -35.5t26.5 -35t22 -29q4 2 31 14.5t32.5 15.5t29 15t30 18t25 19.5t25 24t18.5 27t16 32t8 36.5t4 44q0 74 -41.5 125t-114.5 51q-81 0 -128.5 -48.5t-47.5 -135.5z" />
<glyph unicode="'" horiz-adv-x="387" d="M123 1509q0 12 7.5 19.5t19.5 7.5h88q12 0 20 -7.5t8 -19.5l-10 -333q-3 -27 -29 -27h-67q-12 0 -20.5 7.5t-8.5 19.5z" />
<glyph unicode="(" horiz-adv-x="837" d="M98 719q0 170 39.5 312.5t104.5 239.5t151 165.5t178.5 99.5t186.5 31q26 0 26 -27v-104q0 -27 -26 -27q-67 0 -134.5 -26t-132 -82t-114 -135.5t-79.5 -197t-30 -255.5q0 -140 30.5 -258t80.5 -196t114.5 -132.5t131.5 -79t133 -24.5q26 0 26 -27v-105q0 -26 -26 -26 q-94 0 -186.5 31.5t-178.5 100t-151 166.5t-104.5 241.5t-39.5 314.5z" />
<glyph unicode=")" horiz-adv-x="837" d="M53 -6q0 12 7.5 20.5t19.5 8.5q66 0 133 24t132 78.5t115 132.5t80.5 195.5t30.5 257.5q0 172 -45.5 309.5t-118.5 219.5t-157.5 124.5t-169.5 42.5q-12 0 -19.5 8t-7.5 19v104q0 12 7.5 19.5t19.5 7.5q94 0 186.5 -31t178 -99t151 -165t104.5 -240t39 -313t-39 -313.5 t-104.5 -241.5t-151 -167t-178 -100.5t-186.5 -31.5q-12 0 -19.5 8t-7.5 20v103z" />
<glyph unicode="*" horiz-adv-x="890" d="M100 1167v70q0 13 8.5 21.5t20.5 5.5l236 -29l-187 147q-9 8 -9 20t9 19l47 49q23 19 39 0l146 -182l-27 232q-1 10 7 18t20 8h69q13 0 21.5 -7.5t7.5 -18.5l-25 -234l142 184q7 9 19.5 9t19.5 -9l49 -47q9 -9 9 -21t-9 -20l-185 -149l232 33q12 1 20 -7t8 -20v-70 q0 -12 -8 -20t-20 -8l-225 22l178 -139q9 -8 9 -19t-9 -20l-49 -49q-8 -9 -20 -9t-19 9l-146 178l29 -227q1 -12 -7.5 -19.5t-21.5 -7.5h-69q-12 0 -20 8.5t-7 18.5l23 231l-140 -182q-8 -9 -20 -10t-21 8l-47 49q-9 9 -8.5 21.5t10.5 19.5l185 141l-236 -24 q-12 -1 -20.5 6.5t-8.5 19.5z" />
<glyph unicode="+" horiz-adv-x="1019" d="M86 514v104q0 12 8.5 19.5t20.5 7.5h317v334q0 27 25 27h116q12 0 19.5 -7.5t7.5 -19.5v-334h305q12 0 20.5 -7.5t8.5 -19.5v-104q0 -12 -8.5 -19.5t-20.5 -7.5h-305v-321q0 -12 -7.5 -19.5t-19.5 -7.5h-116q-25 0 -25 27v321h-317q-12 0 -20.5 7.5t-8.5 19.5z" />
<glyph unicode="," horiz-adv-x="473" d="M133 80q0 41 28 68.5t68 27.5q54 0 84.5 -38.5t30.5 -110.5q0 -116 -46 -171t-118 -55q-12 0 -12 11v38q0 13 12 13q32 0 58 27t26 81l-4 25q-10 -10 -39 -10q-36 0 -62 26t-26 68z" />
<glyph unicode="-" horiz-adv-x="974" d="M141 481v105q0 12 8.5 19t20.5 7h637q27 0 27 -26v-105q0 -26 -27 -26h-637q-12 0 -20.5 7t-8.5 19z" />
<glyph unicode="." horiz-adv-x="454" d="M131 82q0 40 28 68t68 28q41 0 70 -28t29 -68q0 -41 -28.5 -68.5t-70.5 -27.5q-40 0 -68 27.5t-28 68.5z" />
<glyph unicode="/" horiz-adv-x="825" d="M78 -127l495 1659q6 24 33 24h121q24 0 18 -24l-495 -1659q-9 -25 -33 -25h-121q-27 0 -18 25z" />
<glyph unicode="0" horiz-adv-x="1409" d="M113 743q0 215 70 382t205 262.5t317 95.5t317 -95.5t204.5 -262.5t69.5 -382q0 -225 -68.5 -395t-203 -266t-319.5 -96q-278 0 -435 206.5t-157 550.5zM297 737q0 -278 109 -434t299 -156q191 0 298 154.5t107 435.5q0 274 -109 429t-296 155q-188 0 -298 -156 t-110 -428z" />
<glyph unicode="1" horiz-adv-x="978" d="M86 1165q-16 19 6 35l357 256q20 14 36 14h125q27 0 27 -24v-1296h297q24 0 24 -25v-100q0 -25 -24 -25h-805q-27 0 -27 25v100q0 25 27 25h332v1128l-283 -203q-21 -14 -35 6z" />
<glyph unicode="2" horiz-adv-x="1288" d="M104 25v59q0 99 29.5 181t80 140t115.5 106.5t137 86t143.5 72t136.5 71t115.5 77t80 96t29.5 122.5q0 119 -90.5 202t-231.5 83q-170 0 -260 -85t-90 -214q0 -25 -25 -25h-131q-24 0 -24 25q0 89 31 169t93 146.5t166.5 106t239.5 39.5q119 0 216.5 -36t160 -97t96 -139 t33.5 -164q0 -85 -29 -157t-78.5 -124t-113.5 -97.5t-135 -82t-142.5 -71.5t-137.5 -72.5t-117.5 -78.5t-84.5 -95.5t-38 -118.5h722v147q0 25 25 25h117q26 0 26 -25v-272q0 -25 -26 -25h-1012q-27 0 -27 25z" />
<glyph unicode="3" horiz-adv-x="1234" d="M84 225q-18 17 0 35l88 82q16 16 35 0q12 -10 41.5 -40.5t56 -53t66.5 -48t94 -39.5t117 -14q163 0 258.5 78t95.5 205q0 260 -348 260h-82q-25 0 -25 25v94q0 13 7 22t18 9h65q40 0 78 4.5t84 20t79 40t56 68.5t23 102q0 105 -75 175.5t-224 70.5q-71 0 -127 -22 t-88.5 -57.5t-49 -76.5t-16.5 -84q0 -24 -24 -24h-121q-27 0 -27 24q0 183 123.5 292.5t329.5 109.5q124 0 221 -36t152 -95t82.5 -125t27.5 -135q0 -76 -31.5 -141t-75 -101t-82.5 -56t-61 -20v-2q22 0 55 -9.5t76 -36t78.5 -65t60.5 -105t25 -148.5q0 -191 -147.5 -306.5 t-390.5 -115.5q-81 0 -153 16t-120.5 39.5t-91.5 54.5t-65.5 55t-43 47.5t-24.5 26.5z" />
<glyph unicode="4" horiz-adv-x="1218" d="M39 481v97q0 29 27 65l639 780q24 29 39 38t36 9h117q27 0 27 -24v-840h161q27 0 27 -26v-99q0 -24 -27 -24h-161v-307h178q24 0 24 -25v-100q0 -25 -24 -25h-588q-25 0 -25 25v100q0 25 25 25h234v307h-685q-24 0 -24 24zM219 600h529v649z" />
<glyph unicode="5" horiz-adv-x="1232" d="M94 225q-9 7 -9 17t9 18l88 82q17 17 37 0q5 -5 31.5 -34.5t41.5 -44t49.5 -40.5t66.5 -40t81 -25t103 -11q169 0 262.5 87.5t93.5 246.5q0 141 -95.5 226.5t-260.5 85.5q-55 0 -115 -8.5t-98 -18t-86.5 -23t-61.5 -16.5q-57 -15 -57 49v674q0 25 27 25h819q24 0 24 -25 v-262q0 -25 -24 -25h-117q-24 0 -24 25v133h-527v-410q4 1 31.5 8.5t58 14.5t82.5 13.5t105 6.5q242 0 373 -131t131 -350q0 -222 -147.5 -354.5t-393.5 -132.5q-54 0 -104 7t-91 20t-76.5 28t-65 35t-52 36.5t-42.5 37t-31 32.5t-23 27t-13 16z" />
<glyph unicode="6" horiz-adv-x="1314" d="M117 723q0 231 64.5 400t198.5 264.5t327 95.5q203 0 325.5 -107t122.5 -276q0 -25 -25 -25h-120q-25 0 -25 25q0 36 -16 73t-47 71t-87 55.5t-128 21.5q-179 0 -280 -126t-122 -355q169 108 406 108q241 0 370 -128.5t129 -346.5q0 -213 -144 -350t-386 -137 q-179 0 -307 93.5t-192 258t-64 385.5zM301 674q9 -250 105 -388.5t272 -138.5q162 0 255 92t93 240q0 140 -93.5 223.5t-258.5 83.5q-71 0 -137.5 -13t-115 -34.5t-74.5 -36t-46 -28.5z" />
<glyph unicode="7" horiz-adv-x="1132" d="M47 1163v283q0 24 25 24h1001q25 0 25 -24v-64q0 -110 -28 -200t-72.5 -156.5t-98 -131.5t-107 -142.5t-97.5 -170.5t-71.5 -235.5t-27.5 -318.5q0 -27 -27 -27h-129q-24 0 -24 25q0 184 26 333t68 244.5t93 173t102.5 136.5t94 116t71 130.5t30.5 162.5h-686v-158 q0 -24 -27 -24h-116q-25 0 -25 24z" />
<glyph unicode="8" horiz-adv-x="1314" d="M111 416q0 80 25 146t61 106t79 68t76 39t54 11v5q-22 0 -59 18.5t-79 53t-72 97t-30 138.5q0 69 27.5 134t83 122.5t154 92.5t226.5 36q104 0 189 -23.5t140 -62t93 -89t54 -103.5t16 -107q0 -76 -30 -138.5t-72 -97t-79 -53t-59 -18.5v-5q21 0 54 -11t76 -39t79 -68 t61 -106t25 -146q0 -192 -146 -311t-399 -119q-254 0 -401 119t-147 311zM295 432q0 -132 96 -208.5t266 -76.5q172 0 267.5 76.5t95.5 208.5q0 129 -86 198.5t-250 69.5h-53q-165 0 -250.5 -68.5t-85.5 -199.5zM350 1077q0 -59 21.5 -103t53 -68.5t75 -39.5t79.5 -19.5 t74 -4.5q41 0 78.5 4.5t82 19.5t76.5 39.5t53.5 68.5t21.5 103q0 105 -79 174.5t-229 69.5q-151 -1 -229 -70t-78 -174z" />
<glyph unicode="9" horiz-adv-x="1308" d="M100 995q0 213 144.5 350.5t386.5 137.5q179 0 307 -93.5t192 -258.5t64 -386q0 -231 -64.5 -400t-198.5 -264t-327 -95q-203 0 -325.5 107t-122.5 276q0 24 24 24h121q25 0 25 -24q0 -36 16 -73t47 -71.5t87 -56t128 -21.5q178 0 278.5 126t121.5 354 q-171 -107 -404 -107q-241 0 -370.5 128.5t-129.5 346.5zM285 989q0 -140 93.5 -223.5t258.5 -83.5q71 0 137.5 13.5t114 34.5t74.5 36t45 29q-8 248 -104 387t-271 139q-162 0 -255 -92t-93 -240z" />
<glyph unicode=":" horiz-adv-x="477" d="M141 82q0 40 28.5 68t68.5 28q41 0 69.5 -28t28.5 -68q0 -41 -28.5 -68.5t-69.5 -27.5q-40 0 -68.5 27.5t-28.5 68.5zM141 901q0 41 28.5 69.5t68.5 28.5q41 0 69.5 -28.5t28.5 -69.5q0 -40 -28.5 -68t-69.5 -28q-40 0 -68.5 28t-28.5 68z" />
<glyph unicode=";" horiz-adv-x="507" d="M150 80q0 41 28 68.5t68 27.5q54 0 84 -38.5t30 -110.5q0 -114 -45.5 -168t-117.5 -54q-13 0 -13 11v34q0 13 13 13q33 0 58.5 27t25.5 81q0 5 -0.5 9.5t-1.5 7t-1.5 4.5t-1.5 3v1q-9 -10 -38 -10q-36 0 -62 26t-26 68zM152 901q0 41 28 69.5t68 28.5q41 0 69.5 -28.5 t28.5 -69.5q0 -40 -28.5 -68t-69.5 -28q-40 0 -68 28t-28 68z" />
<glyph unicode="&#x3c;" horiz-adv-x="970" d="M82 502v37q0 26 29 39l686 329q26 10 26 -16v-88q0 -28 -26 -41l-506 -242l506 -241q26 -10 26 -39v-88q0 -12 -7 -16.5t-19 -0.5l-686 328q-29 13 -29 39z" />
<glyph unicode="=" horiz-adv-x="1011" d="M152 231v105q0 26 26 26h656q26 0 26 -26v-105q0 -26 -26 -26h-656q-26 0 -26 26zM152 715v102q0 12 7 20.5t19 8.5h656q12 0 19 -8.5t7 -20.5v-102q0 -12 -7 -20.5t-19 -8.5h-656q-12 0 -19 8.5t-7 20.5z" />
<glyph unicode="&#x3e;" horiz-adv-x="972" d="M150 152v88q0 29 26 39l506 241l-506 242q-26 13 -26 41v88q0 26 26 16l686 -329q29 -13 29 -39v-37q0 -26 -29 -39l-686 -328q-12 -4 -19 0.5t-7 16.5z" />
<glyph unicode="?" horiz-adv-x="1087" d="M70 981q0 78 14 147.5t48.5 136t87 114t135.5 76t188 28.5q145 0 251 -57.5t158 -152t52 -212.5q0 -78 -24 -143.5t-62.5 -112t-85 -89t-93.5 -84.5t-85.5 -88.5t-62.5 -111t-24 -141.5q0 -25 -26 -25h-117q-27 0 -27 25q0 95 23.5 174.5t60.5 134t82 101.5t90 86 t82 77.5t60.5 87t23.5 103.5q0 119 -73.5 192.5t-202.5 73.5q-151 0 -222.5 -93t-74.5 -247q0 -25 -25 -25h-125q-26 0 -26 25zM375 14q0 47 33.5 81t80.5 34t81 -34t34 -81t-34 -80.5t-81 -33.5t-80.5 33.5t-33.5 80.5z" />
<glyph unicode="@" horiz-adv-x="1638" d="M104 471q0 133 41 257t115.5 223t172.5 173.5t218.5 115t247.5 40.5q153 0 279.5 -47t209 -128t127 -188.5t44.5 -228.5q0 -133 -41.5 -240t-111 -173t-156.5 -101t-183 -35q-55 0 -76.5 17t-15.5 61l6 43l-3 -5q-3 -5 -8 -12t-12.5 -17t-18 -20t-23 -20.5t-28.5 -20 t-33 -16.5t-38.5 -11.5t-44.5 -4.5q-55 0 -105 19t-94 58t-70 109t-26 162q0 96 33 177.5t88.5 136t127.5 84.5t151 30q128 0 174 -84l8 41q7 23 26 23h72q25 0 21 -25l-78 -604h37q111 0 195.5 115t84.5 309q0 202 -141.5 327.5t-376.5 125.5q-136 0 -257 -56t-204 -148 t-131.5 -213t-48.5 -249q0 -169 77 -303.5t207 -207.5t287 -73q124 0 227 17.5t144 35.5l41 17q9 6 19 3t14 -15l33 -72q10 -23 -13 -33q-7 -4 -20.5 -10.5t-59 -23.5t-96 -30t-129.5 -23.5t-160 -10.5q-152 0 -286 55.5t-230.5 151.5t-152.5 231.5t-56 290.5zM610 485 q0 -115 55.5 -169t135.5 -54q76 0 134.5 64t65.5 127l27 211q-2 15 -9.5 33.5t-23.5 41t-47 37.5t-71 15q-105 0 -186 -84t-81 -222z" />
<glyph unicode="A" horiz-adv-x="1472" d="M-12 25v100q0 25 24 25h140l440 1171h-113q-26 0 -26 25v100q0 24 26 24h275q49 0 74.5 -20t45.5 -68l467 -1232h138q26 0 26 -25v-100q0 -25 -26 -25h-457q-27 0 -27 25v100q0 25 27 25h141l-129 348h-579l-129 -348h143q27 0 27 -25v-100q0 -25 -27 -25h-457 q-24 0 -24 25zM512 647h467l-229 617h-15z" />
<glyph unicode="B" horiz-adv-x="1380" d="M94 25v100q0 25 25 25h157v1171h-157q-25 0 -25 25v100q0 24 25 24h657q204 0 317 -108t113 -285q0 -101 -48 -181t-134 -128q262 -76 262 -348q0 -192 -128 -306t-380 -114h-659q-25 0 -25 25zM451 150h305q161 0 253.5 69.5t92.5 214.5q0 127 -86.5 189.5t-247.5 62.5 h-317v-536zM451 827h305q49 1 94.5 14.5t85 40t63 73.5t23.5 108q0 73 -25 125.5t-68 80t-90.5 40t-103.5 12.5h-284v-494z" />
<glyph unicode="C" horiz-adv-x="1531" d="M104 743q0 170 56.5 312t152.5 234t219.5 143t260.5 51q95 0 175 -21t134.5 -56.5t89 -69.5t59.5 -72l-2 182q0 24 25 24h112q25 0 25 -24v-447q0 -26 -25 -26h-124q-27 0 -27 26v19q0 43 -32 94.5t-86.5 98.5t-139 78.5t-176.5 31.5q-75 0 -147.5 -22.5t-139 -70 t-116.5 -115t-79.5 -164.5t-29.5 -212q0 -114 29.5 -211.5t80.5 -166t118 -117.5t141.5 -72t152.5 -23q88 0 165.5 20.5t129 49.5t96 69t67 69.5t40.5 60.5q16 30 37 12l88 -57q17 -15 4 -41q-15 -29 -36.5 -61t-76.5 -86.5t-120.5 -94.5t-173 -71t-230.5 -31 q-145 0 -273 54t-221.5 150.5t-148 239.5t-54.5 313z" />
<glyph unicode="D" horiz-adv-x="1513" d="M94 25v100q0 25 25 25h157v1171h-157q-25 0 -25 25v100q0 24 25 24h549q341 0 541 -195t200 -538t-189.5 -540t-514.5 -197h-586q-25 0 -25 25zM451 150h204q279 2 424.5 148.5t145.5 434.5q0 279 -146.5 433.5t-429.5 154.5h-198v-1171z" />
<glyph unicode="E" horiz-adv-x="1349" d="M94 25v100q0 25 25 25h157v1171h-157q-25 0 -25 25v100q0 24 25 24h1091q25 0 25 -24v-328q0 -24 -25 -24h-116q-25 0 -25 24v203h-618v-512h518q26 0 26 -25v-100q0 -25 -26 -25h-518v-509h616v200q0 25 27 25h116q25 0 25 -25v-325q0 -25 -25 -25h-1091q-25 0 -25 25z " />
<glyph unicode="F" horiz-adv-x="1249" d="M94 25v100q0 25 25 25h157v1171h-157q-25 0 -25 25v100q0 24 25 24h1055q26 0 26 -24v-328q0 -24 -26 -24h-117q-25 0 -25 24v203h-581v-512h483q24 0 24 -25v-100q0 -25 -24 -25h-483v-509h231q25 0 25 -25v-100q0 -25 -25 -25h-563q-25 0 -25 25z" />
<glyph unicode="G" horiz-adv-x="1574" d="M104 743q0 139 38 259t104.5 207t155 149.5t190.5 93.5t209 31q94 0 173 -18t132.5 -49t87.5 -62t57 -66l-2 158q0 24 25 24h112q25 0 25 -24v-422q0 -25 -25 -25h-124q-27 0 -27 25v25q0 42 -31.5 89t-84.5 88t-135 68t-173 27q-100 0 -194 -41t-167 -114.5t-117 -185.5 t-44 -243q0 -139 45.5 -253.5t121 -186.5t169 -111t192.5 -39q88 0 164 18t130.5 49t92.5 63t66 69v178h-383q-11 0 -18 7.5t-7 19.5v96q0 27 25 27h528q25 0 25 -27v-622q0 -25 -25 -25h-106q-25 0 -25 25v141q-176 -180 -475 -180q-149 0 -278.5 53.5t-224 150.5 t-148.5 240t-54 313z" />
<glyph unicode="H" horiz-adv-x="1667" d="M94 25v100q0 25 25 25h157v1171h-157q-25 0 -25 25v100q0 24 25 24h489q27 0 27 -24v-100q0 -25 -27 -25h-157v-512h766v512h-158q-25 0 -25 25v100q0 24 25 24h489q25 0 25 -24v-100q0 -25 -25 -25h-157v-1171h157q25 0 25 -25v-100q0 -25 -25 -25h-489q-25 0 -25 25 v100q0 25 25 25h158v509h-766v-509h157q27 0 27 -25v-100q0 -25 -27 -25h-489q-25 0 -25 25z" />
<glyph unicode="I" horiz-adv-x="729" d="M94 25v100q0 25 25 25h157v1171h-157q-25 0 -25 25v100q0 24 25 24h489q27 0 27 -24v-100q0 -25 -27 -25h-157v-1171h157q27 0 27 -25v-100q0 -25 -27 -25h-489q-25 0 -25 25z" />
<glyph unicode="J" horiz-adv-x="911" d="M66 25v100q0 25 24 25q116 0 195 23.5t126 73.5t67 118.5t20 166.5v789h-158q-25 0 -25 25v100q0 24 25 24h489q27 0 27 -24v-100q0 -25 -27 -25h-157v-766q0 -301 -140.5 -428t-441.5 -127q-24 0 -24 25z" />
<glyph unicode="K" horiz-adv-x="1499" d="M94 25v100q0 25 25 25h157v1171h-157q-25 0 -25 25v100q0 24 25 24h456q25 0 25 -24v-100q0 -25 -25 -25h-124v-580h215q106 0 182 27.5t133.5 93t85.5 179.5t29 280h-142q-24 0 -24 25v100q0 24 24 24h453q27 0 27 -24v-100q0 -25 -27 -25h-139q-3 -499 -281 -649 q67 -31 129 -150l3 -4.5t2.5 -4.5l2.5 -5l176 -358h125q27 0 27 -25v-100q0 -25 -27 -25h-174q-42 0 -70 24.5t-51 73.5l-194 391q-14 27 -22 39.5t-30 33t-58 29.5t-87 9h-288v-450h190q25 0 25 -25v-100q0 -25 -25 -25h-522q-25 0 -25 25z" />
<glyph unicode="L" horiz-adv-x="1308" d="M94 25v100q0 25 25 25h157v1171h-157q-25 0 -25 25v100q0 24 25 24h487q12 0 20.5 -7t8.5 -19v-96q0 -12 -8.5 -19.5t-20.5 -7.5h-155v-1171h655v200q0 25 24 25h117q27 0 27 -25v-323q0 -12 -8.5 -19.5t-20.5 -7.5h-1126q-25 0 -25 25z" />
<glyph unicode="M" horiz-adv-x="1867" d="M94 25v100q0 25 25 25h157v1171h-157q-25 0 -25 25v100q0 24 25 24h350q70 0 96 -69l277 -737q16 -41 38 -105.5t36 -108.5l14 -44h8q57 159 94 253l277 742q29 69 98 69h340q27 0 27 -24v-100q0 -25 -27 -25h-156v-1171h156q27 0 27 -25v-100q0 -25 -27 -25h-469 q-25 0 -25 25v100q0 25 25 25h137v1081h-2l-389 -1024q-24 -62 -92 -62q-32 0 -57 16t-37 46l-383 1024h-4v-1081h137q26 0 26 -25v-100q0 -25 -26 -25h-469q-25 0 -25 25z" />
<glyph unicode="N" horiz-adv-x="1642" d="M94 25v100q0 25 25 25h157v1167h-157q-25 0 -25 24v105q0 24 25 24h274q40 0 62.5 -17.5t44.5 -51.5l592 -914q30 -46 59 -99.5t43 -83.5l14 -30h4v1047h-157q-25 0 -25 25v100q0 24 25 24h489q27 0 27 -24v-100q0 -25 -27 -25h-158v-1296q0 -25 -24 -25h-102 q-40 0 -62 15t-43 48l-598 928q-26 41 -51.5 88t-37.5 74l-13 27h-4v-1030h157q27 0 27 -25v-100q0 -25 -27 -25h-489q-25 0 -25 25z" />
<glyph unicode="O" horiz-adv-x="1628" d="M102 743q0 137 38.5 256t106 206.5t157.5 151t194.5 95t216.5 31.5q141 0 269 -51t227 -143t158 -234t59 -312q0 -169 -55 -311.5t-150.5 -239.5t-226.5 -151.5t-281 -54.5q-149 0 -280.5 55.5t-227 153.5t-150.5 240t-55 308zM287 737q0 -139 45.5 -253.5t121 -186.5 t169 -111t192.5 -39t192.5 39t169 111t121 186.5t45.5 253.5q0 114 -31.5 211t-83.5 164.5t-120.5 115.5t-143 70.5t-149.5 22.5t-149.5 -22.5t-143 -70.5t-120.5 -115.5t-83.5 -164.5t-31.5 -211z" />
<glyph unicode="P" horiz-adv-x="1296" d="M94 25v100q0 25 25 25h157v1171h-157q-25 0 -25 25v100q0 24 25 24h631q216 0 353.5 -125t137.5 -339q0 -215 -135.5 -333t-380.5 -118h-274v-405h200q25 0 25 -25v-100q0 -25 -25 -25h-532q-25 0 -25 25zM451 705h258q348 0 348 299q0 82 -28 144t-77 99t-110 55.5 t-131 18.5h-260v-616z" />
<glyph unicode="Q" horiz-adv-x="1628" d="M102 743q0 137 38.5 256t106 206.5t157.5 151t194.5 95t216.5 31.5q141 0 269 -51t227 -143t158 -234t59 -312q0 -210 -83.5 -376.5t-227 -262.5t-326.5 -114q10 -8 42 -21.5t116 -31t180 -17.5q115 0 211 41q21 9 30 -8l33 -107q7 -20 -14 -32q-112 -56 -260 -56 q-77 0 -150 14t-127.5 36t-102 48.5t-80 53t-56 48.5t-34.5 36l-11 14q-250 45 -408 245t-158 490zM287 737q0 -139 45.5 -253.5t121 -186.5t169 -111t192.5 -39t192.5 39t169 111t121 186.5t45.5 253.5q0 114 -31.5 211t-83.5 164.5t-120.5 115.5t-143 70.5t-149.5 22.5 t-149.5 -22.5t-143 -70.5t-120.5 -115.5t-83.5 -164.5t-31.5 -211z" />
<glyph unicode="R" horiz-adv-x="1421" d="M94 25v100q0 25 25 25h157v1171h-157q-25 0 -25 25v100q0 24 25 24h633q219 0 356 -115.5t137 -326.5q0 -159 -77 -261t-224 -140q39 -30 96 -138l172 -339h123q27 0 27 -25v-100q0 -25 -27 -25h-176q-42 0 -70 24t-53 74l-192 391q-28 55 -54 80.5t-75 26.5h-264v-446 h188q25 0 25 -25v-100q0 -25 -25 -25h-520q-25 0 -25 25zM451 737h256q172 0 263 65.5t91 219.5q0 82 -28 142t-78.5 93t-111.5 48.5t-136 15.5h-256v-584z" />
<glyph unicode="S" horiz-adv-x="1370" d="M115 25v473q0 24 26 24h125q25 0 25 -24v-29q0 -13 13.5 -45.5t47.5 -80t82.5 -89.5t129 -72t175.5 -30q166 0 259.5 64t93.5 179q0 55 -32 97t-86 68.5t-123.5 48t-147 41t-155 41.5t-147 55t-123.5 76t-86 110t-32 153q0 172 129 285t348 113q277 0 403 -162l-2 127 q-3 25 25 25h113q24 0 24 -25v-442q0 -27 -24 -27h-127q-11 0 -18 7.5t-7 19.5v57q0 27 -11.5 58.5t-40 66.5t-69 63.5t-105.5 47t-143 18.5q-142 0 -226.5 -65.5t-84.5 -166.5q0 -56 32 -98.5t86 -70.5t123.5 -50.5t147 -42.5t155 -42t147 -54t123.5 -74t86 -106t32 -146 q0 -85 -30 -158.5t-90 -131.5t-160.5 -91.5t-231.5 -33.5q-102 0 -189.5 26t-145.5 68t-93.5 79.5t-59.5 76.5l3 -211q0 -25 -27 -25h-111q-26 0 -26 25z" />
<glyph unicode="T" horiz-adv-x="1368" d="M39 1120v324q0 12 8.5 19t20.5 7h1232q27 0 27 -26v-324q0 -12 -7.5 -20t-19.5 -8h-112q-12 0 -19.5 8t-7.5 20v201h-389v-1171h146q26 0 26 -27v-96q0 -27 -26 -27h-474q-12 0 -20 7.5t-8 19.5v96q0 12 8 19.5t20 7.5h154v1171h-391v-201q0 -12 -7.5 -20t-19.5 -8h-112 q-12 0 -20.5 8t-8.5 20z" />
<glyph unicode="U" horiz-adv-x="1568" d="M53 1346v100q0 24 25 24h489q25 0 25 -24v-100q0 -25 -25 -25h-157v-776q0 -398 376 -398q191 0 281 103t90 282v789h-156q-26 0 -26 25v100q0 24 26 24h490q25 0 25 -24v-100q0 -25 -25 -25h-158v-770q0 -278 -142.5 -421.5t-404.5 -143.5q-263 0 -408 144t-145 421v770 h-155q-25 0 -25 25z" />
<glyph unicode="V" horiz-adv-x="1480" d="M-29 1346v100q0 24 25 24h463q24 0 24 -24v-100q0 -25 -24 -25h-142l418 -1112h13l415 1112h-139q-27 0 -27 25v100q0 24 27 24h461q26 0 26 -24v-100q0 -25 -26 -25h-135l-473 -1239q-16 -44 -36 -63t-59 -19h-80q-39 0 -59 18.5t-39 63.5l-475 1239h-133q-25 0 -25 25z " />
<glyph unicode="W" horiz-adv-x="2045" d="M-18 1346v100q0 24 26 24h461q27 0 27 -24v-100q0 -25 -27 -25h-143l317 -1112h12l285 1261h164l287 -1261h12l317 1112h-143q-27 0 -27 25v100q0 24 27 24h461q26 0 26 -24v-100q0 -25 -26 -25h-131l-375 -1239q-12 -43 -34 -62.5t-62 -19.5h-78q-76 0 -96 82l-238 1042 h-6l-234 -1042q-11 -43 -34 -62.5t-64 -19.5h-76q-40 0 -62 19.5t-34 62.5l-377 1239h-129q-26 0 -26 25z" />
<glyph unicode="X" horiz-adv-x="1542" d="M39 25v100q0 25 24 25h158l447 567l-459 604h-143q-25 0 -25 25v100q0 24 25 24h493q25 0 25 -24v-100q0 -25 -25 -25h-141l354 -467l352 469h-133q-24 0 -24 25v100q0 25 24 25h494q24 0 24 -25v-100q0 -25 -24 -25h-158l-459 -596l441 -577h159q27 0 27 -25v-100 q0 -25 -27 -25h-493q-25 0 -25 25v100q0 25 25 25h125l-338 442l-338 -442h133q25 0 25 -25v-100q0 -25 -25 -25h-494q-24 0 -24 25z" />
<glyph unicode="Y" horiz-adv-x="1327" d="M-16 1346v100q0 24 24 24h471q27 0 27 -24v-100q0 -25 -27 -25h-133l320 -576h8l315 576h-139q-25 0 -25 25v100q0 24 25 24h469q27 0 27 -24v-100q0 -25 -27 -25h-139l-430 -733v-438h161q25 0 25 -25v-100q0 -25 -25 -25h-495q-25 0 -25 25v100q0 25 25 25h159v438 l-428 733h-139q-24 0 -24 25z" />
<glyph unicode="Z" horiz-adv-x="1312" d="M100 27v88q0 19 39 69l850 1137h-721v-168q0 -12 -8 -19.5t-20 -7.5h-113q-12 0 -19.5 7.5t-7.5 19.5v291q0 26 27 26h1059q26 0 26 -26v-76q0 -8 -2.5 -16t-8 -18t-9.5 -16.5t-12 -17.5t-11 -16l-847 -1134h722v167q0 27 29 27h113q26 0 26 -27v-290q0 -27 -26 -27 h-1059q-12 0 -19.5 7.5t-7.5 19.5z" />
<glyph unicode="[" horiz-adv-x="727" d="M201 -121v1665q0 25 26 25h412q12 0 20.5 -8.5t8.5 -20.5v-106q0 -12 -8.5 -19.5t-20.5 -7.5h-266v-1391h266q12 0 20.5 -8t8.5 -20v-107q0 -12 -8.5 -19t-20.5 -7h-412q-26 0 -26 24z" />
<glyph unicode="\" horiz-adv-x="825" d="M78 1532q-6 24 18 24h121q27 0 33 -24l495 -1659q9 -25 -18 -25h-121q-24 0 -33 25z" />
<glyph unicode="]" horiz-adv-x="727" d="M59 -12q0 12 8.5 20t20.5 8h266v1391h-266q-12 0 -20.5 7.5t-8.5 19.5v106q0 12 8.5 20.5t20.5 8.5h412q26 0 26 -25v-1665q0 -24 -26 -24h-412q-12 0 -20.5 7t-8.5 19v107z" />
<glyph unicode="_" horiz-adv-x="1255" d="M139 -74q0 12 7.5 19.5t19.5 7.5h924q26 0 26 -27v-104q0 -27 -26 -27h-924q-12 0 -19.5 7.5t-7.5 19.5v104z" />
<glyph unicode="`" horiz-adv-x="595" d="M78 1487l65 76q8 9 19 10t20 -6l330 -291q10 -7 11 -18.5t-7 -20.5l-51 -59q-18 -21 -39 -4l-344 274q-18 15 -4 39z" />
<glyph unicode="a" d="M76 268q0 113 71 187t190.5 105.5t287.5 31.5h172v26q0 261 -267 261q-61 0 -114 -10t-86.5 -24.5t-58 -29.5t-37 -25t-13.5 -10q-20 -8 -31 6l-57 72q-15 18 4 33q6 7 18.5 18.5t47 32.5t77 37.5t111 29.5t146.5 13q208 0 319 -97t111 -313v-475h114q25 0 25 -24v-88 q0 -25 -25 -25h-178q-45 0 -66.5 20t-21.5 66v104h-4q-149 -206 -399 -206q-146 0 -241 77t-95 207zM252 291q0 -70 56.5 -115t150.5 -45q61 0 118 18.5t99 49.5t70.5 58.5t50.5 57.5v140h-164q-85 0 -149 -7t-119 -24t-84 -50.5t-29 -82.5z" />
<glyph unicode="b" horiz-adv-x="1214" d="M27 1358v88q0 24 24 24h254q25 0 25 -24v-545l-6 -80h6q35 83 122 142t214 59q208 0 333 -142t125 -370q0 -238 -127.5 -381t-332.5 -143q-129 0 -216.5 60.5t-123.5 146.5h-2v-168q0 -25 -25 -25h-111q-26 0 -26 25v1308h-109q-24 0 -24 25zM328 506q0 -170 88 -273.5 t223 -103.5q139 0 228 105t89 274t-90.5 270t-226.5 101q-132 0 -221.5 -100t-89.5 -273z" />
<glyph unicode="c" horiz-adv-x="1134" d="M90 508q0 120 40.5 219.5t109 162.5t155 97.5t180.5 34.5q124 0 203.5 -45.5t122.5 -106.5h2v113q-1 12 6 19.5t19 7.5h78q24 0 24 -27v-348q0 -25 -24 -25h-93q-26 0 -26 25v35q0 73 -82.5 141t-208.5 68q-59 0 -117.5 -24.5t-108 -69.5t-80 -118t-30.5 -161t29.5 -161 t78.5 -119.5t109.5 -71.5t124.5 -25q62 0 120 18t99 45t67.5 52t39.5 45q15 21 37 6l57 -57q21 -18 8 -37q-10 -17 -29.5 -40t-59 -55t-86.5 -57.5t-117 -44t-146 -18.5q-139 0 -252 61t-181.5 181.5t-68.5 279.5z" />
<glyph unicode="d" horiz-adv-x="1247" d="M90 510q0 227 127.5 369.5t335.5 142.5q126 0 210.5 -55.5t121.5 -135.5h2q-2 35 -2 58v444h-115q-27 0 -27 25v88q0 24 27 24h260q25 0 25 -24v-1309h108q25 0 25 -24v-88q0 -25 -25 -25h-178q-47 0 -68.5 20t-21.5 66v115h-2q-33 -86 -123 -150.5t-219 -64.5 q-206 0 -333.5 143t-127.5 381zM258 508q0 -169 89 -274t228 -105q135 0 223.5 103.5t88.5 273.5q0 173 -90 273t-222 100q-136 0 -226.5 -101t-90.5 -270z" />
<glyph unicode="e" horiz-adv-x="1122" d="M90 508q0 120 40.5 219.5t108.5 162.5t153.5 97.5t178.5 34.5q223 0 340 -138.5t117 -391.5q0 -12 -7.5 -19.5t-19.5 -7.5h-739q4 -84 35 -150t79 -105.5t105.5 -60t120.5 -20.5t122 17.5t99.5 44t67 51.5t39.5 45q6 10 16 12t19 -6l57 -55q18 -18 6 -37q-11 -18 -30 -40 t-58 -54.5t-85.5 -58t-116.5 -44t-146 -18.5q-139 0 -252 61t-181.5 181.5t-68.5 279.5zM266 602h596q-6 122 -80 199.5t-204 77.5q-119 0 -205.5 -72t-106.5 -205z" />
<glyph unicode="f" horiz-adv-x="718" d="M76 895v88q0 25 24 25h119v127q0 171 87 259.5t243 88.5q115 0 207 -82q21 -18 4 -35l-47 -63q-20 -17 -37 -5q-11 11 -41.5 25t-69.5 14q-84 0 -130 -52t-46 -152v-125h262q25 0 25 -25v-88q0 -25 -25 -25h-262v-733h180q25 0 25 -24v-88q0 -25 -25 -25h-465 q-24 0 -24 25v88q0 24 24 24h115v733h-119q-24 0 -24 25z" />
<glyph unicode="g" horiz-adv-x="1239" d="M90 506q0 234 128 375t333 141q127 0 214 -59t126 -142h4l-2 162q0 25 25 25h241q25 0 25 -25v-88q0 -25 -25 -25h-110v-909q0 -111 -37 -196t-103.5 -138t-154.5 -79.5t-193 -26.5q-55 0 -105.5 6.5t-89 18.5t-69.5 24.5t-55.5 27.5t-38.5 25.5t-27 21.5l-12 11 q-23 20 -6 37l53 76q12 18 35 2q1 -1 10 -8.5t17.5 -14t25 -17.5t33 -19t41.5 -17.5t51.5 -16t61 -10.5t71.5 -4q147 0 237.5 73t90.5 224v234q-39 -86 -124.5 -147.5t-211.5 -61.5q-207 0 -333 145t-126 375zM258 502q0 -167 89 -270t226 -103q134 0 224 102.5t90 272.5 q0 174 -90 274.5t-224 100.5q-137 0 -226 -103t-89 -274z" />
<glyph unicode="h" horiz-adv-x="1214" d="M55 25v88q0 24 25 24h115v1196h-115q-25 0 -25 25v88q0 24 25 24h260q25 0 25 -24v-457q0 -62 -9 -125h4q17 26 40 49.5t60.5 50t94 42.5t123.5 16q164 0 258 -96.5t94 -259.5v-529h115q26 0 26 -24v-88q0 -25 -26 -25h-195q-47 0 -68.5 20t-21.5 66v539q0 118 -56 183.5 t-167 65.5q-43 0 -81.5 -10t-65 -25.5t-49 -34.5t-36 -37.5t-23 -34.5t-13.5 -25l-4 -9v-561h108q25 0 25 -24v-88q0 -25 -25 -25h-393q-25 0 -25 25z" />
<glyph unicode="i" horiz-adv-x="581" d="M78 25v88q0 24 24 24h115v733h-115q-24 0 -24 25v88q0 25 24 25h258q27 0 27 -25v-846h109q24 0 24 -24v-88q0 -25 -24 -25h-394q-24 0 -24 25zM178 1315q0 51 35 87t86 36q50 0 85.5 -36t35.5 -87q0 -49 -35.5 -84t-85.5 -35q-51 0 -86 34.5t-35 84.5z" />
<glyph unicode="j" horiz-adv-x="532" d="M-172 -360l45 61q21 17 39 4q51 -41 108 -41q84 0 130.5 53.5t46.5 153.5v999h-115q-25 0 -25 25v88q0 25 25 25h260q25 0 25 -25v-1114q0 -171 -87 -259.5t-243 -88.5q-115 0 -205 80q-23 20 -4 39zM158 1315q0 51 35 87t86 36q50 0 85 -36t35 -87q0 -49 -35 -84 t-85 -35q-51 0 -86 34.5t-35 84.5z" />
<glyph unicode="k" horiz-adv-x="1202" d="M55 25v88q0 24 25 24h115v1196h-115q-25 0 -25 25v88q0 24 25 24h260q25 0 25 -24v-918l372 342h-73q-25 0 -25 25v88q0 25 25 25h393q24 0 24 -25v-88q0 -25 -24 -25h-105l-264 -237l367 -496h90q24 0 24 -24v-88q0 -25 -24 -25h-125q-64 0 -109 63l-342 463l-204 -184 v-205h108q25 0 25 -24v-88q0 -25 -25 -25h-393q-25 0 -25 25z" />
<glyph unicode="l" horiz-adv-x="577" d="M63 25v88q0 24 27 24h115v1196h-115q-27 0 -27 25v88q0 24 27 24h227q30 0 43 -12t13 -39v-1282h108q27 0 27 -24v-88q0 -25 -27 -25h-391q-27 0 -27 25z" />
<glyph unicode="m" horiz-adv-x="1873" d="M80 25v88q0 24 24 24h115v733h-115q-24 0 -24 25v88q0 25 24 25h201q37 0 52 -13t14 -49l-2 -102h6q109 178 332 178q109 0 187.5 -44.5t117.5 -125.5q117 170 329 170q164 0 256.5 -96.5t92.5 -259.5v-529h114q25 0 25 -24v-88q0 -25 -25 -25h-194q-47 0 -68.5 20 t-21.5 66v539q0 119 -57.5 186.5t-168.5 67.5q-156 0 -252 -146q13 -54 13 -82v-514h114q25 0 25 -24v-88q0 -25 -25 -25h-393q-24 0 -24 25v88q0 24 24 24h109v488q0 119 -56 186.5t-167 67.5q-34 0 -65 -6.5t-54.5 -17t-45 -24t-36.5 -28.5t-27.5 -30.5t-20.5 -28.5 t-13.5 -24t-7.5 -16l-3 -6v-561h98q27 0 27 -24v-88q0 -25 -27 -25h-383q-24 0 -24 25z" />
<glyph unicode="n" horiz-adv-x="1239" d="M80 25v88q0 24 24 24h115v733h-115q-24 0 -24 25v88q0 25 24 25h242q25 0 25 -25l-2 -139h6q109 178 330 178q164 0 257 -96.5t93 -259.5v-529h114q27 0 27 -24v-88q0 -25 -27 -25h-194q-47 0 -68.5 20t-21.5 66v539q0 119 -56 186.5t-167 67.5q-58 0 -107.5 -18.5 t-78.5 -44t-50 -53t-29 -44t-8 -19.5v-563h109q24 0 24 -24v-88q0 -25 -24 -25h-394q-24 0 -24 25z" />
<glyph unicode="o" horiz-adv-x="1200" d="M90 508q0 236 145.5 375t364.5 139q143 0 258 -61t183.5 -179t68.5 -274q0 -236 -143.5 -379t-366.5 -143t-366.5 142.5t-143.5 379.5zM262 506q0 -169 98 -273t240 -104t240 104t98 273q0 85 -27.5 156t-74.5 118t-108 73t-128 26q-138 0 -238 -102.5t-100 -270.5z" />
<glyph unicode="p" horiz-adv-x="1241" d="M53 -348q0 24 25 24h110v1194h-106q-25 0 -25 25v88q0 25 25 25h242q24 0 24 -25l-2 -162h4q37 82 125 141.5t215 59.5q206 0 333.5 -141t127.5 -375q0 -230 -125.5 -375t-333.5 -145q-126 0 -211.5 58.5t-122.5 141.5h-6q6 -65 6 -94v-416h134q24 0 24 -24v-88 q0 -25 -24 -25h-414q-25 0 -25 25v88zM354 487q0 -84 26.5 -153t71 -113t100.5 -68t116 -24q137 0 226 103t89 270q0 171 -89 274t-226 103q-61 0 -116 -24t-100 -70t-71.5 -123t-26.5 -175z" />
<glyph unicode="q" horiz-adv-x="1214" d="M90 506q0 235 128 375.5t333 140.5q127 0 214 -58.5t126 -140.5h4l-2 160q0 25 25 25h112q25 0 25 -25v-1307h108q25 0 25 -24v-88q0 -25 -25 -25h-411q-27 0 -27 25v88q0 24 27 24h133v426l6 93h-6q-37 -85 -123 -147t-211 -62q-209 0 -335 145t-126 375zM258 504 q0 -168 90 -271.5t227 -103.5q133 0 222.5 102.5t89.5 272.5q0 174 -89.5 274.5t-222.5 100.5q-137 0 -227 -102.5t-90 -272.5z" />
<glyph unicode="r" horiz-adv-x="868" d="M80 25v88q0 24 24 24h115v733h-115q-24 0 -24 25v88q0 25 24 25h242q25 0 25 -25v-256h6q1 6 4.5 16t18 40t33.5 57t55 59.5t79.5 56.5t108.5 40t141 16q12 0 19.5 -7.5t7.5 -19.5v-108q0 -12 -7.5 -19.5t-19.5 -7.5h-43q-89 0 -164 -32.5t-122 -86t-73 -118.5t-26 -132 v-344h109q24 0 24 -24v-88q0 -25 -24 -25h-394q-24 0 -24 25z" />
<glyph unicode="s" horiz-adv-x="1013" d="M90 27l2 307q0 26 27 26h90q27 0 27 -26v-41q2 -7 7.5 -18t28 -39t52 -50t83.5 -39.5t119 -17.5q108 0 165 38t57 109q0 43 -34 73t-88.5 48.5t-120.5 34.5t-132.5 38t-121 52t-88.5 83.5t-34 125.5q0 134 97 212.5t247 78.5q199 0 291 -119h4q-6 74 -6 76q0 12 8.5 19.5 t20.5 7.5h73q12 0 19.5 -7.5t7.5 -19.5v-285q0 -12 -8.5 -19t-20.5 -7h-88q-26 0 -26 26v29q0 52 -65 104t-189 52q-82 0 -139.5 -38t-57.5 -108q0 -46 34.5 -78t90 -51.5t123 -36t134.5 -38t122.5 -51t90 -81.5t34.5 -123q0 -58 -21.5 -108.5t-64.5 -91.5t-118 -64.5 t-173 -23.5q-74 0 -136.5 17.5t-100 43.5t-58 47.5t-29.5 38.5h-4q4 -100 4 -106q0 -27 -26 -27h-80q-12 0 -20.5 7.5t-8.5 19.5z" />
<glyph unicode="t" horiz-adv-x="737" d="M45 897v84q0 12 8.5 19.5t20.5 7.5h116v206q0 12 7.5 20.5t19.5 8.5h115q12 0 20 -8.5t8 -20.5v-206h258q12 0 20.5 -7.5t8.5 -19.5v-84q0 -12 -8.5 -19.5t-20.5 -7.5h-258v-532q0 -102 45.5 -155.5t129.5 -53.5q67 0 108 41q21 18 37 -2l49 -64q17 -17 -4 -38 q-90 -80 -207 -80q-156 0 -242 88.5t-86 259.5v536h-116q-12 0 -20.5 7.5t-8.5 19.5z" />
<glyph unicode="u" horiz-adv-x="1216" d="M45 895v88q0 25 25 25h196q45 0 66.5 -20t21.5 -66v-539q0 -119 57.5 -186.5t168.5 -67.5q57 0 106.5 18t78.5 43t50 52.5t29 44.5t8 20v563h-111q-24 0 -24 25v88q0 25 24 25h254q25 0 25 -25v-846h115q26 0 26 -24v-88q0 -25 -26 -25h-179q-45 0 -66.5 20t-21.5 66v76 h-6q-94 -176 -319 -176q-165 0 -261 97t-96 259v528h-116q-25 0 -25 25z" />
<glyph unicode="v" horiz-adv-x="1187" d="M14 895v88q0 25 25 25h381q24 0 24 -25v-88q0 -25 -24 -25h-86l256 -690h4l268 690h-92q-25 0 -25 25v88q0 25 25 25h381q25 0 25 -25v-88q0 -25 -25 -25h-115l-327 -833q-8 -22 -17 -29.5t-30 -7.5h-144q-20 0 -28.5 7.5t-16.5 29.5l-326 833h-108q-25 0 -25 25z" />
<glyph unicode="w" horiz-adv-x="1644" d="M18 895v88q0 25 25 25h381q27 0 27 -25v-88q0 -25 -27 -25h-92l205 -690h4l180 690h-78q-25 0 -25 25v88q0 25 25 25h358q27 0 27 -25v-88q0 -25 -27 -25h-71l174 -690h4l205 690h-92q-27 0 -27 25v88q0 25 27 25h381q24 0 24 -25v-88q0 -25 -24 -25h-115l-273 -827 q-8 -23 -18 -33t-31 -10h-116q-44 0 -52 43l-172 686h-6l-176 -686q-8 -43 -51 -43h-117q-21 0 -31 10t-18 33l-274 827h-109q-25 0 -25 25z" />
<glyph unicode="x" horiz-adv-x="1167" d="M57 25v88q0 24 27 24h80l321 369l-307 364h-94q-25 0 -25 25v88q0 25 25 25h385q25 0 25 -25v-88q0 -25 -25 -25h-96l231 -274l215 272h-82q-26 0 -26 25v88q0 25 26 25h344q27 0 27 -25v-88q0 -25 -27 -25h-80l-311 -372l305 -359h88q27 0 27 -24v-88q0 -25 -27 -25 h-383q-26 0 -26 25v88q0 24 26 24h99l-230 269l-223 -269h82q27 0 27 -24v-88q0 -25 -27 -25h-344q-27 0 -27 25z" />
<glyph unicode="y" horiz-adv-x="1169" d="M10 895v88q0 25 25 25h371q26 0 26 -25v-88q0 -25 -26 -25h-84l264 -694h4l246 694h-93q-24 0 -24 25v88q0 25 24 25h381q25 0 25 -25v-88q0 -25 -25 -25h-114l-369 -1001q-27 -72 -48.5 -120t-51.5 -95t-63 -73.5t-78.5 -43t-102.5 -16.5q-117 0 -207 80q-20 20 -6 37 l51 65q18 15 37 2q51 -41 109 -41q75 0 119 46.5t85 160.5l56 152h-27q-20 0 -31 11t-22 40l-314 796h-112q-25 0 -25 25z" />
<glyph unicode="z" horiz-adv-x="1110" d="M102 25v84q0 18 4.5 31.5t9.5 19.5t17 18l662 692h-549v-157q0 -25 -25 -25h-94q-25 0 -25 25v270q0 25 25 25h856q25 0 25 -25v-72q0 -37 -31 -65l-672 -709h559v162q0 25 25 25h94q25 0 25 -25v-274q0 -25 -25 -25h-856q-25 0 -25 25z" />
<glyph unicode="{" horiz-adv-x="681" d="M66 682v63q0 27 26 27q42 2 91.5 68t49.5 170v233q0 90 27.5 155t77 100.5t108.5 52t132 16.5q12 0 20 -7.5t8 -19.5v-106q0 -12 -8 -19.5t-20 -7.5q-90 0 -131 -41.5t-41 -136.5v-217q0 -51 -14 -97t-33.5 -75t-39 -51t-33.5 -31l-14 -10v-70q5 -3 14.5 -9.5t32.5 -30 t40.5 -51.5t32 -74t14.5 -97v-230q0 -94 40.5 -134t131.5 -40q12 0 20 -7t8 -19v-107q0 -12 -8 -19t-20 -7q-73 0 -132 15.5t-108.5 50.5t-77 99t-27.5 154v246q0 103 -50 169t-91 66q-12 0 -19 8.5t-7 20.5z" />
<glyph unicode="|" horiz-adv-x="571" d="M199 -244v1776q0 24 26 24h121q25 0 25 -24v-1776q0 -24 -25 -24h-121q-26 0 -26 24z" />
<glyph unicode="}" horiz-adv-x="681" d="M76 -14q0 12 8 19t20 7q91 0 131.5 40t40.5 134v230q0 51 14 96.5t33.5 74.5t39 50.5t33.5 30.5l14 10v70q-5 3 -14.5 10t-32.5 31t-40.5 51.5t-32 74t-14.5 97.5v217q0 95 -41 136.5t-131 41.5q-12 0 -20 7.5t-8 19.5v106q0 12 8 19.5t20 7.5q73 0 132 -16.5t108.5 -52 t77 -100.5t27.5 -155v-233q0 -104 50 -170t91 -68q12 0 20 -7.5t8 -19.5v-63q0 -12 -8 -20.5t-20 -8.5q-40 0 -90.5 -66t-50.5 -169v-246q0 -90 -27.5 -154t-77 -99t-108.5 -50.5t-132 -15.5q-12 0 -20 7t-8 19v107z" />
<glyph unicode="&#xa1;" horiz-adv-x="532" d="M160 1001q0 45 32 77t76 32q46 0 77.5 -31.5t31.5 -77.5t-31.5 -77t-77.5 -31q-45 0 -76.5 31.5t-31.5 76.5zM180 -522l19 1204q0 25 24 25h92q27 0 27 -25l18 -1204q0 -25 -26 -25h-129q-25 0 -25 25z" />
<glyph unicode="&#xa2;" horiz-adv-x="1196" d="M109 625q0 109 34 201.5t93 155t134 101.5t160 50v145q0 25 25 25h88q27 0 27 -25v-150q93 -13 158 -53t94 -90h6l-6 115q0 24 24 24h78q27 0 27 -24v-348q0 -25 -27 -25h-92q-25 0 -25 25v34q-2 72 -84.5 139.5t-206.5 67.5q-59 0 -117.5 -24t-107.5 -68.5t-79.5 -117 t-30.5 -160.5t29.5 -161t78 -119.5t109 -71.5t125.5 -25q116 0 204 54t119 106q17 20 37 6l59 -60q19 -16 7 -37t-38.5 -49t-72 -64t-116.5 -63.5t-152 -34.5v-106q0 -25 -27 -25h-88q-25 0 -25 25v111q-185 24 -303 161t-118 355z" />
<glyph unicode="&#xa3;" horiz-adv-x="1292" d="M90 543v75q0 27 25 27h227q-13 26 -44.5 82.5t-49 92t-33.5 92.5t-16 112q0 211 141 335t379 124q208 0 332.5 -113.5t124.5 -308.5v-33q0 -24 -25 -24h-127q-25 0 -25 24v35q0 113 -76.5 186.5t-203.5 73.5q-68 0 -126 -17.5t-105.5 -53.5t-75 -97.5t-27.5 -142.5 q0 -62 24.5 -122t67.5 -132t60 -113h421q25 0 25 -27v-75q0 -25 -25 -25h-389v-20q0 -100 -55.5 -192t-132.5 -152h778q25 0 25 -25v-104q0 -25 -25 -25h-997q-27 0 -27 25v98q0 29 23 45q4 3 32.5 22.5t48.5 34.5t50.5 44.5t49.5 58t33.5 70t14.5 85.5q0 5 -1 17t-1 18 h-270q-25 0 -25 25z" />
<glyph unicode="&#xa4;" horiz-adv-x="1314" d="M145 713q0 227 138 368l-133 156q-17 20 4 37l18 16q20 20 39 -2l133 -155q133 94 311 94q175 0 312 -97l135 158q19 22 39 2l20 -16q21 -18 2 -37l-135 -160q137 -144 137 -364q0 -230 -139 -375l137 -158q20 -20 -2 -39l-20 -16q-20 -20 -39 2l-137 158 q-131 -95 -310 -95q-178 0 -309 95l-135 -158q-19 -22 -39 -2l-18 16q-9 8 -10 19t6 20l135 156q-140 143 -140 377zM315 711q0 -169 99 -273t241 -104t240 104t98 273q0 168 -100 270t-238 102q-139 0 -239.5 -102t-100.5 -270z" />
<glyph unicode="&#xa5;" horiz-adv-x="1484" d="M61 1346v100q0 24 25 24h471q27 0 27 -24v-100q0 -25 -27 -25h-133l319 -576h9l315 576h-139q-25 0 -25 25v100q0 24 25 24h469q26 0 26 -24v-100q0 -25 -26 -25h-140l-278 -475h186q25 0 25 -27v-65q0 -27 -25 -27h-256l-82 -139v-29h252q12 0 19.5 -7.5t7.5 -19.5v-65 q0 -12 -7.5 -19.5t-19.5 -7.5h-252v-290h162q25 0 25 -25v-100q0 -25 -25 -25h-495q-25 0 -25 25v100q0 25 25 25h159v290h-256q-26 0 -26 27v65q0 27 26 27h256v29l-82 139h-258q-11 0 -17.5 7.5t-6.5 19.5v65q0 27 24 27h189l-277 475h-139q-25 0 -25 25z" />
<glyph unicode="&#xa6;" horiz-adv-x="575" d="M203 -244v668q0 25 24 25h121q27 0 27 -25v-668q0 -24 -27 -24h-121q-24 0 -24 24zM203 864v668q0 24 24 24h121q27 0 27 -24v-668q0 -24 -27 -24h-121q-24 0 -24 24z" />
<glyph unicode="&#xa7;" horiz-adv-x="1390" d="M115 37q0 24 26 24h125q25 0 25 -24v-29q0 -13 13.5 -45.5t47.5 -80t82.5 -89.5t129 -72t175.5 -30q166 0 259.5 64t93.5 179q0 55 -32 97t-86 68.5t-123.5 48t-147 41t-155 41.5t-147 55t-123.5 76.5t-86 110.5t-32 153q0 134 80 233q-80 93 -80 227q0 172 129 285 t348 113q277 0 403 -162l-2 127q-3 25 25 25h113q24 0 24 -25v-442q0 -27 -24 -27h-127q-11 0 -18 7.5t-7 19.5v57q0 27 -11.5 58.5t-40 66.5t-69 63.5t-105.5 47t-143 18.5q-142 0 -226.5 -65.5t-84.5 -166.5q0 -56 32 -98.5t86 -70.5t123.5 -50.5t147 -42.5t155 -42 t147 -54t123.5 -74t86 -106t32 -146q0 -142 -80 -247q80 -87 80 -213q0 -85 -30 -158.5t-90 -132t-160.5 -92t-231.5 -33.5q-102 0 -189.5 26t-145.5 68t-93.5 79.5t-59.5 76.5l3 -211q0 -25 -27 -25h-111q-26 0 -26 25v473zM344 625q0 -67 45 -115.5t125 -79t164.5 -53 t191 -53t177.5 -64.5q45 57 45 135q0 66 -45 112.5t-125 76t-165.5 51t-191 52t-176.5 65.5q-45 -57 -45 -127z" />
<glyph unicode="&#xa8;" horiz-adv-x="641" d="M61 1225q0 38 26.5 65t64.5 27t65 -27t27 -65t-27 -65t-65 -27t-64.5 27t-26.5 65zM397 1225q0 38 26 65t64 27q39 0 67 -27t28 -65t-28 -65t-67 -27q-38 0 -64 27t-26 65z" />
<glyph unicode="&#xa9;" horiz-adv-x="1449" d="M117 713q0 121 49 233.5t131 194.5t194.5 131t233.5 49t233.5 -49t194.5 -131t131 -194.5t49 -233.5q0 -162 -82.5 -302.5t-223 -223.5t-302.5 -83t-302.5 83t-223 223.5t-82.5 302.5zM225 713q0 -136 67 -251t182 -182t251 -67t251.5 67t183 182t67.5 251t-67.5 251 t-183 181.5t-251.5 66.5t-251 -66.5t-182 -181.5t-67 -251zM383 719q0 165 98 262.5t240 97.5q64 0 117.5 -18.5t87 -47.5t52 -51t28.5 -42q9 -11 -5 -25l-59 -41q-14 -9 -22 4q-61 107 -199 107q-91 0 -154 -63t-63 -181q0 -120 63.5 -184t157.5 -64q136 0 195 100 q10 16 22 7l57 -37q16 -13 7 -25q-10 -20 -28.5 -42.5t-52 -51.5t-87.5 -47.5t-117 -18.5q-142 0 -240 98t-98 263z" />
<glyph unicode="&#xaa;" horiz-adv-x="729" d="M104 1118q0 73 58.5 111.5t169.5 38.5h121v6q0 64 -24 93.5t-97 29.5q-27 0 -51 -4.5t-39.5 -10.5t-27 -12.5t-17.5 -11t-7 -4.5q-8 -4 -14 4l-33 43q-7 11 0 14q2 3 7 7.5t22 16t37 20.5t54 16.5t71 7.5q215 0 215 -213v-217h57q12 0 12 -11v-57q0 -12 -12 -12h-98 q-24 0 -34.5 9.5t-10.5 33.5v26h-2q-77 -77 -178 -77q-76 0 -127.5 40.5t-51.5 112.5zM205 1128q0 -36 28 -57.5t74 -21.5q89 0 146 65v88l-117 2q-131 3 -131 -76z" />
<glyph unicode="&#xab;" d="M96 483v45q0 24 27 43l450 314q27 13 27 -11v-90q0 -28 -27 -45l-337 -235l337 -234q27 -20 27 -45v-90q0 -13 -9 -15.5t-18 5.5l-450 311q-27 20 -27 47zM500 483v45q0 24 26 43l453 314q6 3 11.5 4t10.5 -2.5t5 -12.5v-90q0 -26 -27 -45l-338 -235l338 -234 q27 -23 27 -45v-90q0 -13 -9 -15.5t-18 5.5l-453 311q-26 19 -26 47z" />
<glyph unicode="&#xac;" horiz-adv-x="1296" d="M141 690v88q0 12 8.5 19.5t20.5 7.5h944q12 0 19.5 -7.5t7.5 -19.5v-465q0 -24 -25 -24h-96q-25 0 -25 24v351h-825q-12 0 -20.5 7t-8.5 19z" />
<glyph unicode="&#xad;" horiz-adv-x="974" d="M141 481v105q0 12 8.5 19t20.5 7h637q27 0 27 -26v-105q0 -26 -27 -26h-637q-12 0 -20.5 7t-8.5 19z" />
<glyph unicode="&#xae;" horiz-adv-x="1449" d="M117 713q0 121 49 233.5t131 194.5t194.5 131t233.5 49t233.5 -49t194.5 -131t131 -194.5t49 -233.5q0 -162 -82.5 -302.5t-223 -223.5t-302.5 -83t-302.5 83t-223 223.5t-82.5 302.5zM217 713q0 -138 68 -255t185 -185t255 -68t255 68t185 185t68 255t-68 255t-185 185 t-255 68t-255 -68t-185 -185t-68 -255zM438 379v72q0 10 11 10h63v522h-63q-11 0 -11 12v72q0 10 11 10h303q105 0 169 -53.5t64 -157.5q0 -76 -36.5 -125.5t-104.5 -68.5q5 -5 37 -62l75 -147h66q10 0 10 -10v-74q0 -12 -10 -12h-94q-18 0 -29 11t-22 34l-105 202 q-13 25 -23.5 35t-29.5 10h-107v-198h76q12 0 12 -10v-72q0 -12 -12 -12h-239q-11 0 -11 12zM612 748h133q138 0 138 116q0 58 -37 88.5t-101 30.5h-133v-235z" />
<glyph unicode="&#xaf;" horiz-adv-x="802" d="M72 1161v86q0 12 7 20.5t19 8.5h607q12 0 19 -8.5t7 -20.5v-86q0 -26 -26 -26h-607q-26 0 -26 26z" />
<glyph unicode="&#xb0;" horiz-adv-x="544" d="M125 1016q0 65 42 109t103 44q63 0 106.5 -43.5t43.5 -109.5q0 -76 -43 -117t-107 -41q-61 0 -103 41t-42 117zM203 1016q0 -37 20 -58.5t47 -21.5q30 0 51 21t21 59q0 33 -21 54.5t-51 21.5q-27 0 -47 -21.5t-20 -54.5z" />
<glyph unicode="&#xb1;" horiz-adv-x="1116" d="M135 92v103q0 12 7.5 20t19.5 8h792q12 0 19.5 -8t7.5 -20v-103q0 -26 -27 -26h-792q-27 0 -27 26zM135 707v102q0 12 7.5 20.5t19.5 8.5h317v333q0 25 27 25h117q24 0 24 -25v-333h307q12 0 19.5 -8.5t7.5 -20.5v-102q0 -12 -7.5 -20.5t-19.5 -8.5h-307v-322 q0 -26 -24 -26h-117q-27 0 -27 26v322h-317q-12 0 -19.5 8.5t-7.5 20.5z" />
<glyph unicode="&#xb2;" horiz-adv-x="811" d="M133 760v45q1 61 24 108.5t59 76.5t80 52.5t87 43.5t79 41.5t58.5 54t22.5 75.5q0 57 -36.5 89t-98.5 32q-75 0 -116.5 -33t-41.5 -94q0 -16 -12 -16h-82q-15 0 -15 16q0 45 15.5 85t47 73.5t84 53.5t120.5 20q120 0 187 -63t67 -156q0 -55 -22.5 -99.5t-59 -73.5 t-80.5 -52.5t-89 -44t-82.5 -41.5t-63 -50t-29.5 -65h333v73q0 17 17 17h71q17 0 17 -17v-151q0 -19 -21 -19h-499q-21 0 -21 19z" />
<glyph unicode="&#xb3;" horiz-adv-x="745" d="M109 854q-6 10 0 16l53 50q9 9 18 0q22 -23 37.5 -36.5t54.5 -29.5t86 -16q158 0 158 118q0 59 -40.5 91t-115.5 32h-36q-15 0 -15 15v59q0 14 15 14h28q54 0 97 27t43 84q0 46 -33.5 73t-96.5 27q-54 0 -86 -27t-32 -65q0 -16 -15 -16h-77q-15 0 -15 16q0 88 62 142.5 t163 54.5q121 0 182.5 -60t61.5 -135q0 -69 -43 -112t-76 -48q17 -3 37.5 -12.5t46.5 -29.5t43 -57t17 -85q0 -94 -75.5 -151.5t-197.5 -57.5q-31 0 -59 4.5t-49.5 11.5t-41.5 17.5t-33 20t-26 21t-19 18.5t-13.5 16t-7.5 10z" />
<glyph unicode="&#xb4;" horiz-adv-x="595" d="M78 1237q-8 9 -7 20.5t11 18.5l330 289q20 20 39 -2l65 -78q14 -21 -4 -39l-344 -275q-21 -14 -39 7z" />
<glyph unicode="&#xb5;" horiz-adv-x="1230" d="M57 895v88q0 25 25 25h197q45 0 66.5 -20t21.5 -66v-539q0 -119 57 -186.5t168 -67.5q57 0 106.5 18t78.5 43t50 52.5t29 44.5t8 20v563h-110q-25 0 -25 25v88q0 25 25 25h254q24 0 24 -25v-846h115q27 0 27 -24v-88q0 -25 -27 -25h-178q-45 0 -66.5 20t-21.5 66v76h-7 q-94 -176 -319 -176q-112 0 -188 43v-465q0 -25 -25 -25h-119q-24 0 -24 25v1306h-117q-25 0 -25 25z" />
<glyph unicode="&#xb6;" horiz-adv-x="1402" d="M72 969q0 123 36.5 219.5t101.5 157.5t152 92.5t191 31.5h696q25 0 25 -24v-105q0 -24 -25 -24h-90v-1452q0 -25 -24 -25h-129q-25 0 -25 25v1452h-147v-1452q0 -25 -25 -25h-127q-27 0 -27 25v618h-82q-231 0 -366 121.5t-135 364.5z" />
<glyph unicode="&#xb7;" horiz-adv-x="471" d="M139 594q0 40 28 68t69 28q40 0 68 -28t28 -68q0 -41 -28 -68.5t-68 -27.5q-41 0 -69 27.5t-28 68.5z" />
<glyph unicode="&#xb8;" horiz-adv-x="483" d="M78 -240l20 45q11 22 35 7q54 -27 90 -27q68 0 68 47q0 24 -21.5 33.5t-68.5 9.5q-27 0 -36 8.5t-3 26.5l41 127l106 -2l-30 -86q10 0 19 -0.5t32 -6.5t39 -17t29.5 -34.5t13.5 -56.5q0 -71 -48.5 -112t-132.5 -41q-77 0 -147 47q-16 9 -6 32z" />
<glyph unicode="&#xb9;" horiz-adv-x="679" d="M111 1298q-7 11 6 21l198 151q11 7 27 7h80q16 0 16 -19l2 -618h125q21 0 21 -19v-59q0 -21 -21 -21h-389q-20 0 -20 21v59q0 19 20 19h148v512l-150 -113q-12 -8 -20 2z" />
<glyph unicode="&#xba;" horiz-adv-x="696" d="M100 1227q0 118 72.5 187t175.5 69t174.5 -69.5t71.5 -186.5t-71.5 -189.5t-174.5 -72.5t-175.5 72t-72.5 190zM188 1225q0 -81 46.5 -127.5t113.5 -46.5t112.5 46t45.5 128q0 81 -47.5 127.5t-110.5 46.5t-111.5 -47t-48.5 -127z" />
<glyph unicode="&#xbb;" d="M133 135v90q0 25 27 45l338 234l-338 235q-27 17 -27 45v90q0 13 9 16t18 -5l450 -314q29 -18 29 -43v-45q0 -25 -29 -47l-450 -311q-27 -13 -27 10zM537 135v90q0 23 26 45l338 234l-338 235q-26 19 -26 45v90q0 13 8.5 16t17.5 -5l453 -314q26 -19 26 -43v-45 q0 -28 -26 -47l-453 -311q-6 -3 -11.5 -4.5t-10 2t-4.5 12.5z" />
<glyph unicode="&#xbc;" horiz-adv-x="1343" d="M45 1298q-7 11 6 21l199 151q11 7 26 7h80q17 0 17 -19l2 -618h125q20 0 20 -19v-59q0 -21 -20 -21h-389q-21 0 -21 21v59q0 19 21 19h147v512l-149 -113q-13 -9 -21 2zM332 -127l495 1659q6 24 33 24h90q25 0 19 -24l-498 -1659q-6 -25 -31 -25h-90q-27 0 -18 25z M731 246v61q0 13 14 33l324 373q18 22 37 22h84q14 0 14 -12v-397h78q14 0 14 -13v-67q0 -13 -14 -13h-78v-135h66q12 0 12 -12v-72q0 -14 -12 -14h-297q-12 0 -12 14v72q0 12 12 12h117v135h-347q-12 0 -12 13zM846 317h244v275z" />
<glyph unicode="&#xbd;" horiz-adv-x="1435" d="M74 1298q-7 11 6 21l199 151q11 7 26 7h80q16 0 16 -19l2 -618h125q21 0 21 -19v-59q0 -21 -21 -21h-389q-20 0 -20 21v59q0 19 20 19h148v512l-150 -113q-12 -8 -20 2zM360 -127l496 1659q6 24 33 24h90q24 0 18 -24l-497 -1659q-6 -25 -31 -25h-90q-28 0 -19 25z M813 18v45q1 61 24 108.5t59 76.5t80 52.5t87 43.5t79 42t58.5 54.5t22.5 75.5q0 56 -37 88.5t-99 32.5q-75 0 -116 -33t-41 -94q0 -16 -12 -16h-82q-15 0 -15 16q0 96 67 163.5t199 67.5q120 0 187 -63t67 -156q0 -55 -22.5 -99.5t-59 -73.5t-80.5 -52.5t-89 -44 t-82.5 -41.5t-63 -50t-29.5 -65h334v74q0 16 17 16h71q17 0 17 -16v-152q0 -18 -21 -18h-499q-21 0 -21 18z" />
<glyph unicode="&#xbe;" horiz-adv-x="1433" d="M41 854q-6 10 0 16l53 50q10 10 19 0q22 -23 37.5 -36.5t54.5 -29.5t86 -16q158 0 158 118q0 59 -40.5 91t-115.5 32h-37q-14 0 -14 15v59q0 14 14 14h29q54 0 96.5 27t42.5 84q0 46 -33 73t-96 27q-54 0 -86.5 -27t-32.5 -65q0 -16 -14 -16h-78q-14 0 -14 16 q0 88 62 142.5t163 54.5q121 0 182.5 -60t61.5 -135q0 -69 -43 -112t-76 -48q17 -3 37 -12.5t46 -29.5t43 -57t17 -85q0 -94 -75 -151.5t-197 -57.5q-31 0 -59 4.5t-49.5 11.5t-41.5 17.5t-33 19.5t-26.5 21.5t-19.5 19t-14 15.5zM418 -127l495 1659q9 24 35 24h90 q26 0 17 -24l-496 -1659q-6 -25 -33 -25h-90q-24 0 -18 25zM819 246v61q0 15 15 33l321 373q18 22 39 22h84q14 0 14 -12v-397h78q14 0 14 -13v-67q0 -13 -14 -13h-78v-135h66q12 0 12 -12v-72q0 -14 -12 -14h-297q-12 0 -12 14v72q0 12 12 12h117v135h-347q-12 0 -12 13z M932 317h246v275z" />
<glyph unicode="&#xbf;" horiz-adv-x="1062" d="M68 -139q0 78 24 143t62.5 111.5t85 89l93 85t85 88.5t62.5 111t24 142q0 24 26 24h119q25 0 25 -24q0 -95 -23.5 -174.5t-60.5 -134t-82 -101.5t-90 -86t-82 -77.5t-60.5 -87t-23.5 -103.5q0 -119 73 -192.5t203 -73.5q152 0 223.5 93t73.5 247q0 24 25 24h127 q24 0 24 -24q0 -78 -14 -147.5t-48.5 -136t-87 -114t-135.5 -76t-188 -28.5q-216 0 -338 120t-122 302zM467 913q0 47 34 81t81 34q49 0 81.5 -33.5t32.5 -81.5t-32.5 -81t-81.5 -33q-47 0 -81 33.5t-34 80.5z" />
<glyph unicode="&#xc0;" horiz-adv-x="1472" d="M-12 25v100q0 25 24 25h140l440 1171h-113q-26 0 -26 25v100q0 24 26 24h275q49 0 74.5 -20t45.5 -68l467 -1232h138q26 0 26 -25v-100q0 -25 -26 -25h-457q-27 0 -27 25v100q0 25 27 25h141l-129 348h-579l-129 -348h143q27 0 27 -25v-100q0 -25 -27 -25h-457 q-24 0 -24 25zM487 1950l66 75q8 9 19 10.5t20 -5.5l330 -291q10 -7 11 -18.5t-7 -20.5l-52 -60q-18 -21 -38 -4l-344 275q-18 15 -5 39zM512 647h467l-229 617h-15z" />
<glyph unicode="&#xc1;" horiz-adv-x="1472" d="M-12 25v100q0 25 24 25h140l440 1171h-113q-26 0 -26 25v100q0 24 26 24h275q49 0 74.5 -20t45.5 -68l467 -1232h138q26 0 26 -25v-100q0 -25 -26 -25h-457q-27 0 -27 25v100q0 25 27 25h141l-129 348h-579l-129 -348h143q27 0 27 -25v-100q0 -25 -27 -25h-457 q-24 0 -24 25zM512 647h467l-229 617h-15zM645 1700q-8 9 -7 20.5t11 18.5l330 289q9 9 20 7.5t19 -10.5l65 -77q14 -21 -4 -39l-344 -275q-22 -14 -39 6z" />
<glyph unicode="&#xc2;" horiz-adv-x="1472" d="M-12 25v100q0 25 24 25h140l440 1171h-113q-26 0 -26 25v100q0 24 26 24h275q49 0 74.5 -20t45.5 -68l467 -1232h138q26 0 26 -25v-100q0 -25 -26 -25h-457q-27 0 -27 25v100q0 25 27 25h141l-129 348h-579l-129 -348h143q27 0 27 -25v-100q0 -25 -27 -25h-457 q-24 0 -24 25zM403 1700q-8 9 -6.5 20.5t11.5 18.5l317 278q8 8 18 8q13 0 21 -10l317 -276q20 -20 4 -39l-51 -60q-17 -20 -39 -4l-252 215l-251 -215q-19 -16 -39 4zM512 647h467l-229 617h-15z" />
<glyph unicode="&#xc3;" horiz-adv-x="1472" d="M-12 25v100q0 25 24 25h140l440 1171h-113q-26 0 -26 25v100q0 24 26 24h275q49 0 74.5 -20t45.5 -68l467 -1232h138q26 0 26 -25v-100q0 -25 -26 -25h-457q-27 0 -27 25v100q0 25 27 25h141l-129 348h-579l-129 -348h143q27 0 27 -25v-100q0 -25 -27 -25h-457 q-24 0 -24 25zM410 1610q0 107 46.5 166t135.5 59q48 0 90 -15t67.5 -33t59 -33.5t65.5 -16.5q36 0 51 24.5t15 87.5q0 25 25 25h75q25 0 25 -25q0 -241 -184 -241q-52 0 -96 15.5t-68.5 33.5t-56 33.5t-62.5 15.5q-34 0 -48.5 -20.5t-14.5 -75.5q0 -25 -25 -25h-76 q-24 0 -24 25zM512 647h467l-229 617h-15z" />
<glyph unicode="&#xc4;" horiz-adv-x="1472" d="M-12 25v100q0 25 24 25h140l440 1171h-113q-26 0 -26 25v100q0 24 26 24h275q49 0 74.5 -20t45.5 -68l467 -1232h138q26 0 26 -25v-100q0 -25 -26 -25h-457q-27 0 -27 25v100q0 25 27 25h141l-129 348h-579l-129 -348h143q27 0 27 -25v-100q0 -25 -27 -25h-457 q-24 0 -24 25zM485 1688q0 38 26 65t64 27t65.5 -27t27.5 -65t-27.5 -65.5t-65.5 -27.5t-64 27t-26 66zM512 647h467l-229 617h-15zM821 1688q0 38 26 65t64 27q39 0 67 -27t28 -65t-28.5 -65.5t-66.5 -27.5t-64 27t-26 66z" />
<glyph unicode="&#xc5;" horiz-adv-x="1472" d="M-12 25v100q0 25 24 25h140l440 1171h-113q-26 0 -26 25v100q0 24 26 24h275q49 0 74.5 -20t45.5 -68l467 -1232h138q26 0 26 -25v-100q0 -25 -26 -25h-457q-27 0 -27 25v100q0 25 27 25h141l-129 348h-579l-129 -348h143q27 0 27 -25v-100q0 -25 -27 -25h-457 q-24 0 -24 25zM512 647h467l-229 617h-15zM567 1757q0 69 50.5 118.5t119.5 49.5t118.5 -49.5t49.5 -118.5t-49.5 -119.5t-118.5 -50.5t-119.5 50.5t-50.5 119.5zM670 1757q0 -28 19.5 -47.5t47.5 -19.5t48 19.5t20 47.5t-20 48t-48 20t-47.5 -20t-19.5 -48z" />
<glyph unicode="&#xc6;" horiz-adv-x="2021" d="M-25 25v100q0 25 25 25h139l496 1171h-113q-24 0 -24 25v100q0 24 24 24h1360q25 0 25 -24v-328q0 -24 -25 -24h-108q-25 0 -25 24v203h-619v-512h519q26 0 26 -25v-100q0 -25 -26 -25h-519v-509h617v200q0 25 27 25h108q25 0 25 -25v-325q0 -25 -25 -25h-1083 q-25 0 -25 25v100q0 25 25 25h157v509h-426l-215 -509h144q24 0 24 -25v-100q0 -25 -24 -25h-459q-25 0 -25 25zM592 809h364v512h-145z" />
<glyph unicode="&#xc7;" horiz-adv-x="1531" d="M104 743q0 170 56.5 312t152.5 234t219.5 143t260.5 51q95 0 175 -21t134.5 -56.5t89 -69.5t59.5 -72l-2 182q0 24 25 24h112q25 0 25 -24v-447q0 -26 -25 -26h-124q-27 0 -27 26v19q0 43 -32 94.5t-86.5 98.5t-139 78.5t-176.5 31.5q-75 0 -147.5 -22.5t-139 -70 t-116.5 -115t-79.5 -164.5t-29.5 -212q0 -114 29.5 -211.5t80.5 -166t118 -117.5t141.5 -72t152.5 -23q88 0 165.5 20.5t129 49.5t96 69t67 69.5t40.5 60.5q16 30 37 12l88 -57q17 -15 4 -41q-15 -29 -36 -60t-73.5 -84t-116 -92.5t-166 -71t-219.5 -34.5l-12 -39 q10 0 19 -0.5t32 -6.5t39 -17t29.5 -34.5t13.5 -56.5q0 -71 -48 -112t-132 -41q-76 0 -147 47q-16 10 -7 32l21 45q11 22 35 7q54 -27 90 -27q67 0 67 47q0 24 -21.5 33.5t-68.5 9.5q-27 0 -36 8.5t-3 26.5l25 80q-177 18 -316.5 113.5t-221 262t-81.5 377.5z" />
<glyph unicode="&#xc8;" horiz-adv-x="1349" d="M94 25v100q0 25 25 25h157v1171h-157q-25 0 -25 25v100q0 24 25 24h1091q25 0 25 -24v-328q0 -24 -25 -24h-116q-25 0 -25 24v203h-618v-512h518q26 0 26 -25v-100q0 -25 -26 -25h-518v-509h616v200q0 25 27 25h116q25 0 25 -25v-325q0 -25 -25 -25h-1091q-25 0 -25 25z M383 1950l66 75q18 22 38 5l330 -291q10 -7 11 -18.5t-7 -20.5l-51 -60q-18 -21 -39 -4l-344 275q-18 15 -4 39z" />
<glyph unicode="&#xc9;" horiz-adv-x="1349" d="M94 25v100q0 25 25 25h157v1171h-157q-25 0 -25 25v100q0 24 25 24h1091q25 0 25 -24v-328q0 -24 -25 -24h-116q-25 0 -25 24v203h-618v-512h518q26 0 26 -25v-100q0 -25 -26 -25h-518v-509h616v200q0 25 27 25h116q25 0 25 -25v-325q0 -25 -25 -25h-1091q-25 0 -25 25z M461 1700q-8 9 -7 20.5t11 18.5l330 289q9 9 20 7.5t19 -10.5l65 -77q14 -21 -4 -39l-344 -275q-22 -14 -39 6z" />
<glyph unicode="&#xca;" horiz-adv-x="1349" d="M94 25v100q0 25 25 25h157v1171h-157q-25 0 -25 25v100q0 24 25 24h1091q25 0 25 -24v-328q0 -24 -25 -24h-116q-25 0 -25 24v203h-618v-512h518q26 0 26 -25v-100q0 -25 -26 -25h-518v-509h616v200q0 25 27 25h116q25 0 25 -25v-325q0 -25 -25 -25h-1091q-25 0 -25 25z M276 1700q-8 9 -6.5 20.5t11.5 18.5l317 278q8 8 18 8q14 0 21 -10l317 -276q20 -20 4 -39l-51 -60q-17 -20 -39 -4l-252 215l-251 -215q-19 -16 -39 4z" />
<glyph unicode="&#xcb;" horiz-adv-x="1349" d="M94 25v100q0 25 25 25h157v1171h-157q-25 0 -25 25v100q0 24 25 24h1091q25 0 25 -24v-328q0 -24 -25 -24h-116q-25 0 -25 24v203h-618v-512h518q26 0 26 -25v-100q0 -25 -26 -25h-518v-509h616v200q0 25 27 25h116q25 0 25 -25v-325q0 -25 -25 -25h-1091q-25 0 -25 25z M391 1688q0 38 26 65t64 27t65 -27t27 -65t-27 -65.5t-65 -27.5t-64 27t-26 66zM727 1688q0 38 26 65t64 27t66 -27t28 -65t-28 -65.5t-66 -27.5t-64 27t-26 66z" />
<glyph unicode="&#xcc;" horiz-adv-x="729" d="M33 1905l65 75q8 9 19 10.5t20 -5.5l330 -291q10 -7 11 -18.5t-7 -20.5l-51 -60q-18 -21 -39 -4l-344 275q-18 15 -4 39zM94 25v100q0 25 25 25h157v1171h-157q-25 0 -25 25v100q0 24 25 24h489q27 0 27 -24v-100q0 -25 -27 -25h-157v-1171h157q27 0 27 -25v-100 q0 -25 -27 -25h-489q-25 0 -25 25z" />
<glyph unicode="&#xcd;" horiz-adv-x="729" d="M94 25v100q0 25 25 25h157v1171h-157q-25 0 -25 25v100q0 24 25 24h489q27 0 27 -24v-100q0 -25 -27 -25h-157v-1171h157q27 0 27 -25v-100q0 -25 -27 -25h-489q-25 0 -25 25zM254 1651q-8 9 -7 20.5t11 18.5l330 288q20 20 39 -2l65 -78q14 -20 -4 -38l-344 -275 q-22 -14 -39 6z" />
<glyph unicode="&#xce;" horiz-adv-x="729" d="M29 1700q-8 9 -7 20.5t11 18.5l317 278q8 8 19 8q13 0 20 -10l318 -276q20 -20 4 -39l-52 -60q-16 -20 -38 -4l-252 215l-252 -215q-19 -16 -39 4zM92 25v100q0 25 25 25h157v1171h-157q-25 0 -25 25v100q0 24 25 24h489q27 0 27 -24v-100q0 -25 -27 -25h-157v-1171h157 q27 0 27 -25v-100q0 -25 -27 -25h-489q-25 0 -25 25z" />
<glyph unicode="&#xcf;" horiz-adv-x="729" d="M94 25v100q0 25 25 25h157v1171h-157q-25 0 -25 25v100q0 24 25 24h489q27 0 27 -24v-100q0 -25 -27 -25h-157v-1171h157q27 0 27 -25v-100q0 -25 -27 -25h-489q-25 0 -25 25zM111 1688q0 38 26 65t64 27t65 -27t27 -65t-27 -65.5t-65 -27.5t-64 27t-26 66zM446 1688 q0 38 26.5 65t64.5 27t66 -27t28 -65t-28 -65.5t-66 -27.5t-64.5 27.5t-26.5 65.5z" />
<glyph unicode="&#xd0;" horiz-adv-x="1513" d="M94 25v100q0 25 25 25h157v514h-139q-12 0 -20 7t-8 19v86q0 13 8 21t20 8h139v516h-157q-25 0 -25 25v100q0 24 25 24h549q341 0 541 -195t200 -538t-189.5 -540t-514.5 -197h-586q-25 0 -25 25zM451 150h204q280 2 425 148.5t145 434.5q0 279 -146 433.5t-430 154.5 h-198v-516h311q26 0 26 -29v-86q0 -26 -26 -26h-311v-514z" />
<glyph unicode="&#xd1;" horiz-adv-x="1642" d="M94 25v100q0 25 25 25h157v1167h-157q-25 0 -25 24v105q0 24 25 24h274q40 0 62.5 -17.5t44.5 -51.5l592 -914q30 -46 59 -99.5t43 -83.5l14 -30h4v1047h-157q-25 0 -25 25v100q0 24 25 24h489q27 0 27 -24v-100q0 -25 -27 -25h-158v-1296q0 -25 -24 -25h-102 q-40 0 -62 15t-43 48l-598 928q-26 41 -51.5 88t-37.5 74l-13 27h-4v-1030h157q27 0 27 -25v-100q0 -25 -27 -25h-489q-25 0 -25 25zM520 1610q0 107 46.5 166t135.5 59q48 0 90 -15t67.5 -33t59.5 -33.5t66 -16.5q36 0 51 24.5t15 87.5q0 25 24 25h76q25 0 25 -25 q0 -241 -185 -241q-52 0 -95.5 15.5t-68 33.5t-56 33.5t-62.5 15.5q-34 0 -49 -20.5t-15 -75.5q0 -25 -24 -25h-76q-25 0 -25 25z" />
<glyph unicode="&#xd2;" horiz-adv-x="1628" d="M102 743q0 137 38.5 256t106 206.5t157.5 151t194.5 95t216.5 31.5q141 0 269 -51t227 -143t158 -234t59 -312q0 -169 -55 -311.5t-150.5 -239.5t-226.5 -151.5t-281 -54.5q-149 0 -280.5 55.5t-227 153.5t-150.5 240t-55 308zM287 737q0 -139 45.5 -253.5t121 -186.5 t169 -111t192.5 -39t192.5 39t169 111t121 186.5t45.5 253.5q0 114 -31.5 211t-83.5 164.5t-120.5 115.5t-143 70.5t-149.5 22.5t-149.5 -22.5t-143 -70.5t-120.5 -115.5t-83.5 -164.5t-31.5 -211zM537 1950l65 75q8 9 19 10.5t20 -5.5l330 -291q10 -7 11 -18.5t-7 -20.5 l-51 -60q-18 -21 -39 -4l-344 275q-18 15 -4 39z" />
<glyph unicode="&#xd3;" horiz-adv-x="1628" d="M102 743q0 137 38.5 256t106 206.5t157.5 151t194.5 95t216.5 31.5q141 0 269 -51t227 -143t158 -234t59 -312q0 -169 -55 -311.5t-150.5 -239.5t-226.5 -151.5t-281 -54.5q-149 0 -280.5 55.5t-227 153.5t-150.5 240t-55 308zM287 737q0 -139 45.5 -253.5t121 -186.5 t169 -111t192.5 -39t192.5 39t169 111t121 186.5t45.5 253.5q0 114 -31.5 211t-83.5 164.5t-120.5 115.5t-143 70.5t-149.5 22.5t-149.5 -22.5t-143 -70.5t-120.5 -115.5t-83.5 -164.5t-31.5 -211zM590 1700q-8 9 -7 20.5t11 18.5l330 289q9 9 20 7.5t19 -10.5l65 -77 q14 -21 -4 -39l-344 -275q-22 -14 -39 6z" />
<glyph unicode="&#xd4;" horiz-adv-x="1628" d="M102 743q0 137 38.5 256t106 206.5t157.5 151t194.5 95t216.5 31.5q141 0 269 -51t227 -143t158 -234t59 -312q0 -169 -55 -311.5t-150.5 -239.5t-226.5 -151.5t-281 -54.5q-149 0 -280.5 55.5t-227 153.5t-150.5 240t-55 308zM287 737q0 -139 45.5 -253.5t121 -186.5 t169 -111t192.5 -39t192.5 39t169 111t121 186.5t45.5 253.5q0 114 -31.5 211t-83.5 164.5t-120.5 115.5t-143 70.5t-149.5 22.5t-149.5 -22.5t-143 -70.5t-120.5 -115.5t-83.5 -164.5t-31.5 -211zM473 1700q-8 9 -7 20.5t11 18.5l318 278q8 8 18 8q13 0 21 -10l317 -276 q20 -20 4 -39l-51 -60q-17 -20 -39 -4l-252 215l-252 -215q-19 -16 -39 4z" />
<glyph unicode="&#xd5;" horiz-adv-x="1628" d="M102 743q0 137 38.5 256t106 206.5t157.5 151t194.5 95t216.5 31.5q141 0 269 -51t227 -143t158 -234t59 -312q0 -169 -55 -311.5t-150.5 -239.5t-226.5 -151.5t-281 -54.5q-149 0 -280.5 55.5t-227 153.5t-150.5 240t-55 308zM287 737q0 -139 45.5 -253.5t121 -186.5 t169 -111t192.5 -39t192.5 39t169 111t121 186.5t45.5 253.5q0 114 -31.5 211t-83.5 164.5t-120.5 115.5t-143 70.5t-149.5 22.5t-149.5 -22.5t-143 -70.5t-120.5 -115.5t-83.5 -164.5t-31.5 -211zM502 1610q0 107 46.5 166t135.5 59q48 0 90 -15t67.5 -33t59.5 -33.5 t66 -16.5q36 0 50.5 24t14.5 88q0 25 25 25h76q24 0 24 -25q0 -241 -184 -241q-52 0 -96 15.5t-68.5 33.5t-56 33.5t-62.5 15.5q-34 0 -48.5 -20.5t-14.5 -75.5q0 -25 -25 -25h-76q-24 0 -24 25z" />
<glyph unicode="&#xd6;" horiz-adv-x="1628" d="M102 743q0 137 38.5 256t106 206.5t157.5 151t194.5 95t216.5 31.5q141 0 269 -51t227 -143t158 -234t59 -312q0 -169 -55 -311.5t-150.5 -239.5t-226.5 -151.5t-281 -54.5q-149 0 -280.5 55.5t-227 153.5t-150.5 240t-55 308zM287 737q0 -139 45.5 -253.5t121 -186.5 t169 -111t192.5 -39t192.5 39t169 111t121 186.5t45.5 253.5q0 114 -31.5 211t-83.5 164.5t-120.5 115.5t-143 70.5t-149.5 22.5t-149.5 -22.5t-143 -70.5t-120.5 -115.5t-83.5 -164.5t-31.5 -211zM555 1688q0 38 26 65t64 27t65 -27t27 -65t-27 -65.5t-65 -27.5t-64 27 t-26 66zM891 1688q0 38 26 65t64 27t66 -27t28 -65t-28 -65.5t-66 -27.5t-64 27t-26 66z" />
<glyph unicode="&#xd7;" horiz-adv-x="968" d="M147 813q-16 19 0 39l76 76q20 17 39 -2l225 -226l209 211q18 19 37 0l80 -80q19 -19 0 -34l-209 -211l223 -226q18 -21 0 -36l-75 -78q-8 -8 -19 -8t-18 8l-226 225l-223 -225q-18 -15 -37 0l-77 82q-20 20 0 37l221 223z" />
<glyph unicode="&#xd8;" horiz-adv-x="1628" d="M102 743q0 137 38.5 256t106 206.5t157.5 151t194.5 95t216.5 31.5q77 0 158 -19l35 113q9 25 34 25h76q26 0 17 -25l-45 -147q196 -78 317 -257.5t121 -429.5q0 -169 -55 -311.5t-150.5 -239.5t-226.5 -151.5t-281 -54.5q-65 0 -151 14l-25 -80q-7 -26 -31 -26h-78 q-24 0 -18 26l35 115q-202 80 -323.5 267.5t-121.5 440.5zM291 737q0 -196 84 -334t221 -202l330 1106q-56 12 -111 12q-95 0 -186 -36.5t-167.5 -106t-123.5 -184t-47 -255.5zM711 162q44 -10 104 -10q99 0 191.5 38t167.5 109t120 185t45 253q0 193 -83 327.5t-216 199.5z " />
<glyph unicode="&#xd9;" horiz-adv-x="1568" d="M53 1346v100q0 24 25 24h489q25 0 25 -24v-100q0 -25 -25 -25h-157v-776q0 -398 376 -398q191 0 281 103t90 282v789h-156q-26 0 -26 25v100q0 24 26 24h490q25 0 25 -24v-100q0 -25 -25 -25h-158v-770q0 -278 -142.5 -421.5t-404.5 -143.5q-263 0 -408 144t-145 421v770 h-155q-25 0 -25 25zM567 1950l66 75q8 9 19 10.5t20 -5.5l329 -291q10 -7 11.5 -18.5t-6.5 -20.5l-52 -60q-18 -21 -39 -4l-344 275q-18 15 -4 39z" />
<glyph unicode="&#xda;" horiz-adv-x="1568" d="M53 1346v100q0 24 25 24h489q25 0 25 -24v-100q0 -25 -25 -25h-157v-776q0 -398 376 -398q191 0 281 103t90 282v789h-156q-26 0 -26 25v100q0 24 26 24h490q25 0 25 -24v-100q0 -25 -25 -25h-158v-770q0 -278 -142.5 -421.5t-404.5 -143.5q-263 0 -408 144t-145 421v770 h-155q-25 0 -25 25zM633 1700q-8 9 -7 20.5t11 18.5l330 289q9 9 20 7.5t19 -10.5l65 -77q14 -21 -4 -39l-344 -275q-22 -14 -39 6z" />
<glyph unicode="&#xdb;" horiz-adv-x="1568" d="M53 1346v100q0 24 25 24h489q25 0 25 -24v-100q0 -25 -25 -25h-157v-776q0 -398 376 -398q191 0 281 103t90 282v789h-156q-26 0 -26 25v100q0 24 26 24h490q25 0 25 -24v-100q0 -25 -25 -25h-158v-770q0 -278 -142.5 -421.5t-404.5 -143.5q-263 0 -408 144t-145 421v770 h-155q-25 0 -25 25zM446 1700q-8 9 -6.5 20.5t11.5 18.5l317 278q8 8 18 8q14 0 21 -10l317 -276q20 -20 4 -39l-51 -60q-17 -20 -39 -4l-252 215l-251 -215q-19 -16 -39 4z" />
<glyph unicode="&#xdc;" horiz-adv-x="1568" d="M53 1346v100q0 24 25 24h489q25 0 25 -24v-100q0 -25 -25 -25h-157v-776q0 -398 376 -398q191 0 281 103t90 282v789h-156q-26 0 -26 25v100q0 24 26 24h490q25 0 25 -24v-100q0 -25 -25 -25h-158v-770q0 -278 -142.5 -421.5t-404.5 -143.5q-263 0 -408 144t-145 421v770 h-155q-25 0 -25 25zM522 1688q0 38 26 65t64 27t65.5 -27t27.5 -65t-27.5 -65.5t-65.5 -27.5t-64 27t-26 66zM858 1688q0 38 26 65t64 27t66 -27t28 -65t-28 -65.5t-66 -27.5t-64 27t-26 66z" />
<glyph unicode="&#xdd;" horiz-adv-x="1327" d="M-16 1346v100q0 24 24 24h471q27 0 27 -24v-100q0 -25 -27 -25h-133l320 -576h8l315 576h-139q-25 0 -25 25v100q0 24 25 24h469q27 0 27 -24v-100q0 -25 -27 -25h-139l-430 -733v-438h161q25 0 25 -25v-100q0 -25 -25 -25h-495q-25 0 -25 25v100q0 25 25 25h159v438 l-428 733h-139q-24 0 -24 25zM451 1700q-8 9 -7 20.5t11 18.5l329 289q9 9 20 7.5t19 -10.5l66 -77q14 -21 -4 -39l-344 -275q-22 -14 -39 6z" />
<glyph unicode="&#xde;" horiz-adv-x="1290" d="M100 25v92q0 24 25 24h145v1188h-141q-25 0 -25 25v92q0 24 25 24h283q26 0 26 -24v-250h291q222 0 358 -114.5t136 -325.5q0 -210 -132.5 -320t-383.5 -110h-275v-185h195q24 0 24 -24v-92q0 -25 -24 -25h-502q-25 0 -25 25zM434 467h289q151 0 236 69.5t85 219.5 q0 76 -26 134t-71.5 91.5t-101.5 49.5t-122 16h-289v-580z" />
<glyph unicode="&#xdf;" horiz-adv-x="1374" d="M55 25v92q0 24 25 24h119v846q0 114 36 209t98 157t143.5 96t174.5 34q171 0 264 -79.5t93 -195.5q0 -55 -20 -98.5t-50 -69t-64.5 -52t-64.5 -49.5t-50 -60t-20 -84q0 -48 32.5 -83t84.5 -57t114.5 -42t125 -46t114.5 -59.5t84.5 -91.5t32.5 -135q0 -131 -120 -218.5 t-292 -87.5q-51 0 -97 8.5t-81 20.5t-66.5 33t-52.5 38t-41.5 44t-31 42.5t-22.5 41.5t-14.5 33t-9.5 26l-1.5 3t-1 2.5t-0.5 2.5q-13 23 12 35l72 33q26 10 34 -12q0 -1 8.5 -19t20 -40t35.5 -49t52.5 -49t74 -37t98.5 -15q103 0 173.5 48.5t70.5 119.5q0 47 -24.5 82.5 t-64 56t-90.5 40.5t-103.5 35t-103.5 39.5t-90.5 54t-64 78.5t-24.5 113q0 59 19 105.5t47 73t61 52.5t61 46t47 51.5t19 69.5q0 62 -48 104.5t-145 42.5q-118 0 -195 -90.5t-77 -251.5v-846h82q24 0 24 -24v-92q0 -25 -24 -25h-373q-25 0 -25 25z" />
<glyph unicode="&#xe0;" d="M76 268q0 113 71 187t190.5 105.5t287.5 31.5h172v26q0 261 -267 261q-61 0 -114 -10t-86.5 -24.5t-58 -29.5t-37 -25t-13.5 -10q-20 -8 -31 6l-57 72q-15 18 4 33q6 7 18.5 18.5t47 32.5t77 37.5t111 29.5t146.5 13q208 0 319 -97t111 -313v-475h114q25 0 25 -24v-88 q0 -25 -25 -25h-178q-45 0 -66.5 20t-21.5 66v104h-4q-149 -206 -399 -206q-146 0 -241 77t-95 207zM252 291q0 -70 56.5 -115t150.5 -45q61 0 118 18.5t99 49.5t70.5 58.5t50.5 57.5v140h-164q-85 0 -149 -7t-119 -24t-84 -50.5t-29 -82.5zM315 1487l66 76q8 9 19 10t20 -6 l330 -291q10 -7 11 -18.5t-7 -20.5l-52 -59q-18 -21 -38 -4l-345 274q-18 15 -4 39z" />
<glyph unicode="&#xe1;" d="M76 268q0 113 71 187t190.5 105.5t287.5 31.5h172v26q0 261 -267 261q-61 0 -114 -10t-86.5 -24.5t-58 -29.5t-37 -25t-13.5 -10q-20 -8 -31 6l-57 72q-15 18 4 33q6 7 18.5 18.5t47 32.5t77 37.5t111 29.5t146.5 13q208 0 319 -97t111 -313v-475h114q25 0 25 -24v-88 q0 -25 -25 -25h-178q-45 0 -66.5 20t-21.5 66v104h-4q-149 -206 -399 -206q-146 0 -241 77t-95 207zM252 291q0 -70 56.5 -115t150.5 -45q61 0 118 18.5t99 49.5t70.5 58.5t50.5 57.5v140h-164q-85 0 -149 -7t-119 -24t-84 -50.5t-29 -82.5zM395 1237q-8 9 -7 20.5t11 18.5 l330 289q20 20 39 -2l66 -78q14 -20 -5 -39l-344 -275q-21 -14 -39 7z" />
<glyph unicode="&#xe2;" d="M76 268q0 113 71 187t190.5 105.5t287.5 31.5h172v26q0 261 -267 261q-61 0 -114 -10t-86.5 -24.5t-58 -29.5t-37 -25t-13.5 -10q-20 -8 -31 6l-57 72q-15 18 4 33q6 7 18.5 18.5t47 32.5t77 37.5t111 29.5t146.5 13q208 0 319 -97t111 -313v-475h114q25 0 25 -24v-88 q0 -25 -25 -25h-178q-45 0 -66.5 20t-21.5 66v104h-4q-149 -206 -399 -206q-146 0 -241 77t-95 207zM233 1237q-8 9 -6.5 20.5t11.5 18.5l317 278q9 9 18 9q13 0 21 -11l317 -276q20 -20 4 -39l-51 -59q-17 -20 -39 -4l-252 215l-251 -215q-19 -16 -39 4zM252 291 q0 -70 56.5 -115t150.5 -45q61 0 118 18.5t99 49.5t70.5 58.5t50.5 57.5v140h-164q-85 0 -149 -7t-119 -24t-84 -50.5t-29 -82.5z" />
<glyph unicode="&#xe3;" d="M76 268q0 113 71 187t190.5 105.5t287.5 31.5h172v26q0 261 -267 261q-61 0 -114 -10t-86.5 -24.5t-58 -29.5t-37 -25t-13.5 -10q-20 -8 -31 6l-57 72q-15 18 4 33q6 7 18.5 18.5t47 32.5t77 37.5t111 29.5t146.5 13q208 0 319 -97t111 -313v-475h114q25 0 25 -24v-88 q0 -25 -25 -25h-178q-45 0 -66.5 20t-21.5 66v104h-4q-149 -206 -399 -206q-146 0 -241 77t-95 207zM244 1147q0 107 46.5 166t135.5 59q48 0 90 -15t67.5 -33t59.5 -33.5t66 -16.5q36 0 50.5 24t14.5 88q0 25 25 25h75q25 0 25 -25q0 -241 -184 -241q-52 0 -96 15.5 t-68.5 33.5t-56 33.5t-62.5 15.5q-34 0 -48.5 -20.5t-14.5 -75.5q0 -25 -25 -25h-76q-24 0 -24 25zM252 291q0 -70 56.5 -115t150.5 -45q61 0 118 18.5t99 49.5t70.5 58.5t50.5 57.5v140h-164q-85 0 -149 -7t-119 -24t-84 -50.5t-29 -82.5z" />
<glyph unicode="&#xe4;" d="M76 268q0 113 71 187t190.5 105.5t287.5 31.5h172v26q0 261 -267 261q-61 0 -114 -10t-86.5 -24.5t-58 -29.5t-37 -25t-13.5 -10q-20 -8 -31 6l-57 72q-15 18 4 33q6 7 18.5 18.5t47 32.5t77 37.5t111 29.5t146.5 13q208 0 319 -97t111 -313v-475h114q25 0 25 -24v-88 q0 -25 -25 -25h-178q-45 0 -66.5 20t-21.5 66v104h-4q-149 -206 -399 -206q-146 0 -241 77t-95 207zM252 291q0 -70 56.5 -115t150.5 -45q61 0 118 18.5t99 49.5t70.5 58.5t50.5 57.5v140h-164q-85 0 -149 -7t-119 -24t-84 -50.5t-29 -82.5zM334 1225q0 38 26 65t64 27 t65 -27t27 -65t-27 -65t-65 -27t-64 27t-26 65zM670 1225q0 38 26 65t64 27t66 -27t28 -65t-28 -65t-66 -27t-64 27t-26 65z" />
<glyph unicode="&#xe5;" d="M76 268q0 113 71 187t190.5 105.5t287.5 31.5h172v26q0 261 -267 261q-61 0 -114 -10t-86.5 -24.5t-58 -29.5t-37 -25t-13.5 -10q-20 -8 -31 6l-57 72q-15 18 4 33q6 7 18.5 18.5t47 32.5t77 37.5t111 29.5t146.5 13q208 0 319 -97t111 -313v-475h114q25 0 25 -24v-88 q0 -25 -25 -25h-178q-45 0 -66.5 20t-21.5 66v104h-4q-149 -206 -399 -206q-146 0 -241 77t-95 207zM252 291q0 -70 56.5 -115t150.5 -45q61 0 118 18.5t99 49.5t70.5 58.5t50.5 57.5v140h-164q-85 0 -149 -7t-119 -24t-84 -50.5t-29 -82.5zM424 1294q0 69 50.5 118.5 t119.5 49.5t118.5 -49.5t49.5 -118.5t-49.5 -119.5t-118.5 -50.5t-119.5 50.5t-50.5 119.5zM526 1294q0 -28 20 -47.5t48 -19.5t48 19.5t20 47.5t-20 48t-48 20t-48 -20t-20 -48z" />
<glyph unicode="&#xe6;" horiz-adv-x="1828" d="M76 268q0 113 71 187t190.5 105.5t287.5 31.5h172v29q0 139 -70 198.5t-197 59.5q-61 0 -114 -10t-86.5 -24.5t-58 -29.5t-37 -25t-13.5 -10q-20 -8 -31 6l-57 72q-15 18 4 33q6 7 18.5 18.5t47 32.5t77 37.5t111 29.5t146.5 13q280 0 368 -180q68 87 167 133.5t208 46.5 q223 0 340 -138.5t117 -391.5q0 -12 -7.5 -19.5t-19.5 -7.5h-739q4 -84 35 -150t79 -105.5t105.5 -60t120.5 -20.5t122 17.5t99.5 44t66.5 51.5t39 45q6 10 16 12t19 -6l58 -55q18 -18 6 -37q-10 -17 -29.5 -39.5t-58.5 -55t-86 -58t-117 -44t-146 -18.5q-141 0 -255.5 62.5 t-178.5 178.5q-27 -40 -62.5 -76.5t-90.5 -77t-133.5 -65t-167.5 -24.5q-146 0 -241 77t-95 207zM252 291q0 -70 58 -116t153 -46q55 0 106 15.5t86 37.5t65.5 50t47.5 50t30 41l13 19q-14 47 -14 113h-162q-87 0 -151 -7t-119 -24t-84 -50.5t-29 -82.5zM975 602h596 q-6 122 -80.5 199.5t-204.5 77.5q-119 0 -205 -72t-106 -205z" />
<glyph unicode="&#xe7;" horiz-adv-x="1134" d="M90 508q0 120 40.5 219.5t109 162.5t155 97.5t180.5 34.5q124 0 203.5 -45.5t122.5 -106.5h2v113q-1 12 6 19.5t19 7.5h78q24 0 24 -27v-348q0 -25 -24 -25h-93q-26 0 -26 25v35q0 73 -82.5 141t-208.5 68q-59 0 -117.5 -24.5t-108 -69.5t-80 -118t-30.5 -161t29.5 -161 t78.5 -119.5t109.5 -71.5t124.5 -25q62 0 120 18t99 45t67.5 52t39.5 45q15 21 37 6l57 -57q21 -18 8 -37q-10 -17 -28.5 -39t-56 -53t-82 -56t-111 -44.5t-138.5 -22.5l-12 -37q10 0 19 -0.5t32 -6.5t39 -17t29.5 -34.5t13.5 -56.5q0 -71 -48 -112t-132 -41q-77 0 -147 47 q-16 10 -7 32l21 45q11 22 35 7q54 -27 90 -27q67 0 67 47q0 24 -21.5 33.5t-68.5 9.5q-27 0 -36 8.5t-3 26.5l27 82q-186 26 -304 163t-118 353z" />
<glyph unicode="&#xe8;" horiz-adv-x="1122" d="M90 508q0 120 40.5 219.5t108.5 162.5t153.5 97.5t178.5 34.5q223 0 340 -138.5t117 -391.5q0 -12 -7.5 -19.5t-19.5 -7.5h-739q4 -84 35 -150t79 -105.5t105.5 -60t120.5 -20.5t122 17.5t99.5 44t67 51.5t39.5 45q6 10 16 12t19 -6l57 -55q18 -18 6 -37q-11 -18 -30 -40 t-58 -54.5t-85.5 -58t-116.5 -44t-146 -18.5q-139 0 -252 61t-181.5 181.5t-68.5 279.5zM266 602h596q-6 122 -80 199.5t-204 77.5q-119 0 -205.5 -72t-106.5 -205zM334 1487l65 76q8 9 19 10t20 -6l330 -291q10 -7 11 -18.5t-7 -20.5l-51 -59q-18 -21 -39 -4l-344 274 q-18 15 -4 39z" />
<glyph unicode="&#xe9;" horiz-adv-x="1122" d="M90 508q0 120 40.5 219.5t108.5 162.5t153.5 97.5t178.5 34.5q223 0 340 -138.5t117 -391.5q0 -12 -7.5 -19.5t-19.5 -7.5h-739q4 -84 35 -150t79 -105.5t105.5 -60t120.5 -20.5t122 17.5t99.5 44t67 51.5t39.5 45q6 10 16 12t19 -6l57 -55q18 -18 6 -37q-11 -18 -30 -40 t-58 -54.5t-85.5 -58t-116.5 -44t-146 -18.5q-139 0 -252 61t-181.5 181.5t-68.5 279.5zM266 602h596q-6 122 -80 199.5t-204 77.5q-119 0 -205.5 -72t-106.5 -205zM428 1237q-8 9 -7 20.5t11 18.5l330 289q20 20 39 -2l65 -78q14 -21 -4 -39l-344 -275q-21 -14 -39 7z" />
<glyph unicode="&#xea;" horiz-adv-x="1122" d="M90 508q0 120 40.5 219.5t108.5 162.5t153.5 97.5t178.5 34.5q223 0 340 -138.5t117 -391.5q0 -12 -7.5 -19.5t-19.5 -7.5h-739q4 -84 35 -150t79 -105.5t105.5 -60t120.5 -20.5t122 17.5t99.5 44t67 51.5t39.5 45q6 10 16 12t19 -6l57 -55q18 -18 6 -37q-11 -18 -30 -40 t-58 -54.5t-85.5 -58t-116.5 -44t-146 -18.5q-139 0 -252 61t-181.5 181.5t-68.5 279.5zM236 1237q-8 9 -7 20.5t11 18.5l317 278q9 9 18 9q13 0 21 -11l317 -276q20 -20 5 -39l-52 -59q-17 -20 -39 -4l-252 215l-251 -215q-19 -16 -39 4zM266 602h596q-6 122 -80 199.5 t-204 77.5q-119 0 -205.5 -72t-106.5 -205z" />
<glyph unicode="&#xeb;" horiz-adv-x="1122" d="M90 508q0 120 40.5 219.5t108.5 162.5t153.5 97.5t178.5 34.5q223 0 340 -138.5t117 -391.5q0 -12 -7.5 -19.5t-19.5 -7.5h-739q4 -84 35 -150t79 -105.5t105.5 -60t120.5 -20.5t122 17.5t99.5 44t67 51.5t39.5 45q6 10 16 12t19 -6l57 -55q18 -18 6 -37q-11 -18 -30 -40 t-58 -54.5t-85.5 -58t-116.5 -44t-146 -18.5q-139 0 -252 61t-181.5 181.5t-68.5 279.5zM266 602h596q-6 122 -80 199.5t-204 77.5q-119 0 -205.5 -72t-106.5 -205zM309 1225q0 38 26 65t64 27t65.5 -27t27.5 -65t-27.5 -65t-65.5 -27t-64 27t-26 65zM645 1225q0 38 26 65 t64 27t66 -27t28 -65t-28 -65t-66 -27t-64 27t-26 65z" />
<glyph unicode="&#xec;" horiz-adv-x="581" d="M-82 1477l66 75q8 9 19 10t20 -6l329 -290q10 -7 11 -18.5t-7 -20.5l-51 -60q-18 -21 -39 -4l-344 275q-18 15 -4 39zM78 25v88q0 24 24 24h115v733h-115q-24 0 -24 25v88q0 25 24 25h258q27 0 27 -25v-846h109q24 0 24 -24v-88q0 -25 -24 -25h-394q-24 0 -24 25z" />
<glyph unicode="&#xed;" horiz-adv-x="581" d="M78 25v88q0 24 24 24h115v733h-115q-24 0 -24 25v88q0 25 24 25h258q27 0 27 -25v-846h109q24 0 24 -24v-88q0 -25 -24 -25h-394q-24 0 -24 25zM199 1237q-8 9 -7 20.5t11 18.5l329 289q20 20 39 -2l66 -78q14 -21 -4 -39l-344 -275q-21 -14 -39 7z" />
<glyph unicode="&#xee;" horiz-adv-x="581" d="M-51 1237q-8 9 -7 20.5t11 18.5l317 278q9 9 19 9q12 0 20 -11l318 -276q20 -20 4 -39l-51 -59q-17 -20 -39 -4l-252 215l-252 -215q-19 -16 -39 4zM76 25v88q0 24 24 24h115v733h-115q-24 0 -24 25v88q0 25 24 25h258q27 0 27 -25v-846h109q24 0 24 -24v-88 q0 -25 -24 -25h-394q-24 0 -24 25z" />
<glyph unicode="&#xef;" horiz-adv-x="581" d="M43 1225q0 38 26 65t64 27t65 -27t27 -65t-27 -65t-65 -27t-64 27t-26 65zM78 25v88q0 24 24 24h115v733h-115q-24 0 -24 25v88q0 25 24 25h258q27 0 27 -25v-846h109q24 0 24 -24v-88q0 -25 -24 -25h-394q-24 0 -24 25zM379 1225q0 38 26 65t64 27t66 -27t28 -65 t-28 -65t-66 -27t-64 27t-26 65z" />
<glyph unicode="&#xf0;" horiz-adv-x="1265" d="M92 473q0 208 132.5 332.5t379.5 124.5q230 0 383 -101q-18 236 -108 363l-103 -102q-20 -20 -39 0l-41 40q-8 8 -8 19t8 20l103 103q-86 61 -205 61q-73 0 -127.5 -17t-84 -45t-43 -58t-13.5 -62q0 -25 -25 -25h-111q-24 0 -24 25q0 146 117 239t309 93q186 0 321 -99 l95 93q8 9 18.5 9t17.5 -9l39 -39q7 -9 7 -20.5t-7 -18.5l-88 -90q172 -199 172 -586q0 -222 -61.5 -386.5t-187.5 -257.5t-306 -93q-237 0 -378.5 137t-141.5 350zM264 467q0 -149 93 -240.5t253 -91.5q184 0 279.5 143t101.5 412q-30 22 -71 43t-123.5 43.5t-169.5 22.5 q-167 0 -265 -92.5t-98 -239.5z" />
<glyph unicode="&#xf1;" horiz-adv-x="1239" d="M80 25v88q0 24 24 24h115v733h-115q-24 0 -24 25v88q0 25 24 25h242q25 0 25 -25l-2 -139h6q109 178 330 178q164 0 257 -96.5t93 -259.5v-529h114q27 0 27 -24v-88q0 -25 -27 -25h-194q-47 0 -68.5 20t-21.5 66v539q0 119 -56 186.5t-167 67.5q-58 0 -107.5 -18.5 t-78.5 -44t-50 -53t-29 -44t-8 -19.5v-563h109q24 0 24 -24v-88q0 -25 -24 -25h-394q-24 0 -24 25zM303 1147q0 107 46.5 166t135.5 59q48 0 90 -15t67.5 -33t59.5 -33.5t66 -16.5q36 0 51 24.5t15 87.5q0 25 24 25h76q24 0 24 -25q0 -241 -184 -241q-52 0 -95.5 15.5 t-68 33.5t-56 33.5t-62.5 15.5q-34 0 -49 -20.5t-15 -75.5q0 -25 -25 -25h-75q-25 0 -25 25z" />
<glyph unicode="&#xf2;" horiz-adv-x="1200" d="M90 508q0 236 145.5 375t364.5 139q143 0 258 -61t183.5 -179t68.5 -274q0 -236 -143.5 -379t-366.5 -143t-366.5 142.5t-143.5 379.5zM262 506q0 -169 98 -273t240 -104t240 104t98 273q0 85 -27.5 156t-74.5 118t-108 73t-128 26q-138 0 -238 -102.5t-100 -270.5z M295 1487l65 76q8 9 19 10t20 -6l330 -291q10 -7 11 -18.5t-7 -20.5l-51 -59q-18 -21 -39 -4l-344 274q-18 15 -4 39z" />
<glyph unicode="&#xf3;" horiz-adv-x="1200" d="M90 508q0 236 145.5 375t364.5 139q143 0 258 -61t183.5 -179t68.5 -274q0 -236 -143.5 -379t-366.5 -143t-366.5 142.5t-143.5 379.5zM262 506q0 -169 98 -273t240 -104t240 104t98 273q0 85 -27.5 156t-74.5 118t-108 73t-128 26q-138 0 -238 -102.5t-100 -270.5z M457 1237q-8 9 -7 20.5t11 18.5l330 289q20 20 38 -2l66 -78q14 -21 -4 -39l-344 -275q-21 -14 -39 7z" />
<glyph unicode="&#xf4;" horiz-adv-x="1200" d="M90 508q0 236 145.5 375t364.5 139q143 0 258 -61t183.5 -179t68.5 -274q0 -236 -143.5 -379t-366.5 -143t-366.5 142.5t-143.5 379.5zM262 506q0 -169 98 -273t240 -104t240 104t98 273q0 85 -27.5 156t-74.5 118t-108 73t-128 26q-138 0 -238 -102.5t-100 -270.5z M270 1237q-8 9 -7 20.5t11 18.5l318 278q9 9 18 9q13 0 21 -11l317 -276q20 -20 4 -39l-51 -59q-17 -20 -39 -4l-252 215l-252 -215q-19 -16 -39 4z" />
<glyph unicode="&#xf5;" horiz-adv-x="1200" d="M90 508q0 236 145.5 375t364.5 139q143 0 258 -61t183.5 -179t68.5 -274q0 -236 -143.5 -379t-366.5 -143t-366.5 142.5t-143.5 379.5zM262 506q0 -169 98 -273t240 -104t240 104t98 273q0 85 -27.5 156t-74.5 118t-108 73t-128 26q-138 0 -238 -102.5t-100 -270.5z M287 1147q0 107 46.5 166t135.5 59q48 0 90 -15t67.5 -33t59.5 -33.5t66 -16.5q36 0 50.5 24t14.5 88q0 25 25 25h76q24 0 24 -25q0 -241 -184 -241q-52 0 -96 15.5t-68.5 33.5t-56 33.5t-62.5 15.5q-34 0 -48.5 -20.5t-14.5 -75.5q0 -25 -25 -25h-76q-24 0 -24 25z" />
<glyph unicode="&#xf6;" horiz-adv-x="1200" d="M90 508q0 236 145.5 375t364.5 139q143 0 258 -61t183.5 -179t68.5 -274q0 -236 -143.5 -379t-366.5 -143t-366.5 142.5t-143.5 379.5zM262 506q0 -169 98 -273t240 -104t240 104t98 273q0 85 -27.5 156t-74.5 118t-108 73t-128 26q-138 0 -238 -102.5t-100 -270.5z M346 1225q0 38 26 65t64 27t65 -27t27 -65t-27 -65t-65 -27t-64 27t-26 65zM682 1225q0 38 26 65t64 27t66 -27t28 -65t-28 -65t-66 -27t-64 27t-26 65z" />
<glyph unicode="&#xf7;" horiz-adv-x="960" d="M133 518v103q0 12 8.5 20t20.5 8h637q12 0 19 -8t7 -20v-103q0 -12 -7 -20.5t-19 -8.5h-637q-12 0 -20.5 8.5t-8.5 20.5zM385 295q0 41 28.5 69.5t69.5 28.5q40 0 68.5 -28.5t28.5 -69.5q0 -40 -28.5 -68t-68.5 -28q-41 0 -69.5 28t-28.5 68zM385 850q0 40 28.5 69 t69.5 29q40 0 68.5 -29t28.5 -69t-28.5 -68t-68.5 -28q-41 0 -69.5 28t-28.5 68z" />
<glyph unicode="&#xf8;" horiz-adv-x="1200" d="M90 508q0 236 145.5 375t364.5 139q108 0 203 -39l18 35q10 26 35 26h55q12 0 16.5 -7t0.5 -19l-39 -76q103 -67 162 -178t59 -256q0 -236 -143.5 -379t-366.5 -143q-93 0 -182 28l-25 -49q-12 -24 -31 -24h-55q-12 0 -18 7t0 17l43 88q-113 65 -177.5 182t-64.5 273z M262 506q0 -103 37.5 -184t103.5 -129l332 657q-66 29 -135 29q-138 0 -238 -102.5t-100 -270.5zM487 147q52 -18 113 -18q142 0 240 104t98 273q0 188 -123 293z" />
<glyph unicode="&#xf9;" horiz-adv-x="1216" d="M45 895v88q0 25 25 25h196q45 0 66.5 -20t21.5 -66v-539q0 -119 57.5 -186.5t168.5 -67.5q57 0 106.5 18t78.5 43t50 52.5t29 44.5t8 20v563h-111q-24 0 -24 25v88q0 25 24 25h254q25 0 25 -25v-846h115q26 0 26 -24v-88q0 -25 -26 -25h-179q-45 0 -66.5 20t-21.5 66v76 h-6q-94 -176 -319 -176q-165 0 -261 97t-96 259v528h-116q-25 0 -25 25zM285 1487l65 76q8 9 19 10t20 -6l330 -291q10 -7 11 -18.5t-7 -20.5l-51 -59q-18 -21 -39 -4l-344 274q-18 15 -4 39z" />
<glyph unicode="&#xfa;" horiz-adv-x="1216" d="M45 895v88q0 25 25 25h196q45 0 66.5 -20t21.5 -66v-539q0 -119 57.5 -186.5t168.5 -67.5q57 0 106.5 18t78.5 43t50 52.5t29 44.5t8 20v563h-111q-24 0 -24 25v88q0 25 24 25h254q25 0 25 -25v-846h115q26 0 26 -24v-88q0 -25 -26 -25h-179q-45 0 -66.5 20t-21.5 66v76 h-6q-94 -176 -319 -176q-165 0 -261 97t-96 259v528h-116q-25 0 -25 25zM369 1237q-8 9 -7 20.5t11 18.5l329 289q20 20 39 -2l66 -78q14 -21 -4 -39l-344 -275q-21 -14 -39 7z" />
<glyph unicode="&#xfb;" horiz-adv-x="1216" d="M45 895v88q0 25 25 25h196q45 0 66.5 -20t21.5 -66v-539q0 -119 57.5 -186.5t168.5 -67.5q57 0 106.5 18t78.5 43t50 52.5t29 44.5t8 20v563h-111q-24 0 -24 25v88q0 25 24 25h254q25 0 25 -25v-846h115q26 0 26 -24v-88q0 -25 -26 -25h-179q-45 0 -66.5 20t-21.5 66v76 h-6q-94 -176 -319 -176q-165 0 -261 97t-96 259v528h-116q-25 0 -25 25zM238 1237q-8 9 -7 20.5t11 18.5l317 278q9 9 19 9q12 0 20 -11l317 -276q20 -20 5 -39l-52 -59q-17 -20 -39 -4l-251 215l-252 -215q-19 -16 -39 4z" />
<glyph unicode="&#xfc;" horiz-adv-x="1216" d="M45 895v88q0 25 25 25h196q45 0 66.5 -20t21.5 -66v-539q0 -119 57.5 -186.5t168.5 -67.5q57 0 106.5 18t78.5 43t50 52.5t29 44.5t8 20v563h-111q-24 0 -24 25v88q0 25 24 25h254q25 0 25 -25v-846h115q26 0 26 -24v-88q0 -25 -26 -25h-179q-45 0 -66.5 20t-21.5 66v76 h-6q-94 -176 -319 -176q-165 0 -261 97t-96 259v528h-116q-25 0 -25 25zM322 1225q0 38 26 65t64 27t65 -27t27 -65t-27 -65t-65 -27t-64 27t-26 65zM657 1225q0 38 26.5 65t64.5 27t66 -27t28 -65t-28 -65t-66 -27t-64.5 27t-26.5 65z" />
<glyph unicode="&#xfd;" horiz-adv-x="1169" d="M10 895v88q0 25 25 25h371q26 0 26 -25v-88q0 -25 -26 -25h-84l264 -694h4l246 694h-93q-24 0 -24 25v88q0 25 24 25h381q25 0 25 -25v-88q0 -25 -25 -25h-114l-369 -1001q-27 -72 -48.5 -120t-51.5 -95t-63 -73.5t-78.5 -43t-102.5 -16.5q-117 0 -207 80q-20 20 -6 37 l51 65q18 15 37 2q51 -41 109 -41q75 0 119 46.5t85 160.5l56 152h-27q-20 0 -31 11t-22 40l-314 796h-112q-25 0 -25 25zM420 1237q-8 9 -7 20.5t11 18.5l330 289q20 20 39 -2l65 -78q14 -21 -4 -39l-344 -275q-21 -14 -39 7z" />
<glyph unicode="&#xfe;" horiz-adv-x="1216" d="M27 -350q0 26 26 26h115v1655h-111q-26 0 -26 25v88q0 24 26 24h254q27 0 27 -24v-610q43 86 127 137t201 51q204 0 332 -141t128 -375q0 -230 -126 -375t-334 -145q-126 0 -211.5 58.5t-122.5 141.5h-4q4 -44 4 -73v-437h133q27 0 27 -26v-86q0 -12 -7.5 -19.5 t-19.5 -7.5h-412q-26 0 -26 27v86zM330 504q0 -171 88.5 -273t222.5 -102q137 0 227 103.5t90 269.5q0 171 -90 274t-227 103q-134 0 -222.5 -100.5t-88.5 -274.5z" />
<glyph unicode="&#xff;" horiz-adv-x="1169" d="M10 895v88q0 25 25 25h371q26 0 26 -25v-88q0 -25 -26 -25h-84l264 -694h4l246 694h-93q-24 0 -24 25v88q0 25 24 25h381q25 0 25 -25v-88q0 -25 -25 -25h-114l-369 -1001q-27 -72 -48.5 -120t-51.5 -95t-63 -73.5t-78.5 -43t-102.5 -16.5q-117 0 -207 80q-20 20 -6 37 l51 65q18 15 37 2q51 -41 109 -41q75 0 119 46.5t85 160.5l56 152h-27q-20 0 -31 11t-22 40l-314 796h-112q-25 0 -25 25zM338 1225q0 38 26 65t64 27t65 -27t27 -65t-27 -65t-65 -27t-64 27t-26 65zM674 1225q0 38 26 65t64 27t66 -27t28 -65t-28 -65t-66 -27t-64 27 t-26 65z" />
<glyph unicode="&#x152;" horiz-adv-x="1882" d="M102 743q0 168 58 307.5t156.5 229.5t224.5 139.5t266 50.5h934q26 0 26 -24v-328q0 -24 -26 -24h-113q-26 0 -26 24v203h-617v-512h518q25 0 25 -25v-100q0 -25 -25 -25h-518v-509h617v200q0 25 24 25h115q26 0 26 -25v-325q0 -25 -26 -25h-932q-148 0 -278 54 t-224.5 150t-149.5 235.5t-55 303.5zM291 737q0 -111 29 -205.5t78.5 -161t115.5 -114t140 -70.5t153 -24v1149q-95 -2 -184.5 -38.5t-164.5 -104.5t-121 -180t-46 -251z" />
<glyph unicode="&#x153;" horiz-adv-x="1974" d="M90 508q0 236 145.5 375t364.5 139q134 0 245.5 -56t178.5 -157q66 102 172.5 157.5t226.5 55.5q223 0 340 -138.5t117 -391.5q0 -12 -7.5 -19.5t-19.5 -7.5h-739q4 -84 35 -150t79 -105.5t105.5 -60t120.5 -20.5t122 17.5t99.5 44t67 51.5t39.5 45q6 10 16 12t19 -6 l57 -55q18 -18 6 -37q-11 -18 -30 -40t-58 -54.5t-85.5 -58t-116.5 -44t-146 -18.5q-131 0 -241 56.5t-177 160.5q-68 -103 -179 -160t-247 -57q-223 0 -366.5 142.5t-143.5 379.5zM262 506q0 -169 98 -273t240 -104t240 104t98 273q0 85 -27.5 156t-74.5 118t-108 73 t-128 26q-138 0 -238 -102.5t-100 -270.5zM1118 602h596q-6 122 -80 199.5t-204 77.5q-119 0 -205.5 -72t-106.5 -205z" />
<glyph unicode="&#x178;" horiz-adv-x="1327" d="M-16 1346v100q0 24 24 24h471q27 0 27 -24v-100q0 -25 -27 -25h-133l320 -576h8l315 576h-139q-25 0 -25 25v100q0 24 25 24h469q27 0 27 -24v-100q0 -25 -27 -25h-139l-430 -733v-438h161q25 0 25 -25v-100q0 -25 -25 -25h-495q-25 0 -25 25v100q0 25 25 25h159v438 l-428 733h-139q-24 0 -24 25zM401 1688q0 38 26.5 65t64.5 27t65 -27t27 -65t-27 -65.5t-65 -27.5t-64.5 27.5t-26.5 65.5zM737 1688q0 38 26 65t64 27q39 0 67 -27t28 -65t-28.5 -65.5t-66.5 -27.5t-64 27t-26 66z" />
<glyph unicode="&#x2c6;" horiz-adv-x="839" d="M78 1237q-8 9 -7 20.5t11 18.5l317 278q9 9 19 9q12 0 20 -11l318 -276q20 -20 4 -39l-51 -59q-17 -20 -39 -4l-252 215l-252 -215q-19 -16 -39 4z" />
<glyph unicode="&#x2dc;" horiz-adv-x="786" d="M66 1147q0 107 46.5 166t135.5 59q48 0 90 -15t67.5 -33t59 -33.5t65.5 -16.5q36 0 51 24.5t15 87.5q0 25 25 25h75q25 0 25 -25q0 -241 -184 -241q-52 0 -96 15.5t-68.5 33.5t-56 33.5t-62.5 15.5q-34 0 -49 -20.5t-15 -75.5q0 -25 -24 -25h-76q-24 0 -24 25z" />
<glyph unicode="&#x2000;" horiz-adv-x="1018" />
<glyph unicode="&#x2001;" horiz-adv-x="2037" />
<glyph unicode="&#x2002;" horiz-adv-x="1018" />
<glyph unicode="&#x2003;" horiz-adv-x="2037" />
<glyph unicode="&#x2004;" horiz-adv-x="679" />
<glyph unicode="&#x2005;" horiz-adv-x="509" />
<glyph unicode="&#x2006;" horiz-adv-x="339" />
<glyph unicode="&#x2007;" horiz-adv-x="339" />
<glyph unicode="&#x2008;" horiz-adv-x="254" />
<glyph unicode="&#x2009;" horiz-adv-x="407" />
<glyph unicode="&#x200a;" horiz-adv-x="113" />
<glyph unicode="&#x2010;" horiz-adv-x="974" d="M141 481v105q0 12 8.5 19t20.5 7h637q27 0 27 -26v-105q0 -26 -27 -26h-637q-12 0 -20.5 7t-8.5 19z" />
<glyph unicode="&#x2011;" horiz-adv-x="974" d="M141 481v105q0 12 8.5 19t20.5 7h637q27 0 27 -26v-105q0 -26 -27 -26h-637q-12 0 -20.5 7t-8.5 19z" />
<glyph unicode="&#x2012;" horiz-adv-x="974" d="M141 481v105q0 12 8.5 19t20.5 7h637q27 0 27 -26v-105q0 -26 -27 -26h-637q-12 0 -20.5 7t-8.5 19z" />
<glyph unicode="&#x2013;" horiz-adv-x="1261" d="M141 481v105q0 12 8.5 19t20.5 7h924q26 0 26 -26v-105q0 -26 -26 -26h-924q-12 0 -20.5 7t-8.5 19z" />
<glyph unicode="&#x2014;" horiz-adv-x="1927" d="M141 481v105q0 12 8.5 19t20.5 7h1589q27 0 27 -26v-105q0 -26 -27 -26h-1589q-12 0 -20.5 7t-8.5 19z" />
<glyph unicode="&#x2018;" horiz-adv-x="413" d="M102 1366q0 115 45.5 170t116.5 55q15 0 15 -10v-39q0 -12 -15 -12q-32 0 -58 -27.5t-26 -81.5l4 -24q12 10 39 10q38 0 64 -26t26 -68q0 -41 -28.5 -68.5t-69.5 -27.5q-53 0 -83 39t-30 110z" />
<glyph unicode="&#x2019;" horiz-adv-x="419" d="M111 1425q0 41 28 69t68 28q53 0 82.5 -39t29.5 -111q0 -116 -44.5 -170.5t-116.5 -54.5q-15 0 -15 10v39q0 12 15 12q32 0 58 27.5t26 81.5l-4 24q-10 -10 -39 -10q-36 0 -62 26t-26 68z" />
<glyph unicode="&#x201a;" horiz-adv-x="473" d="M133 80q0 41 28 68.5t68 27.5q54 0 84.5 -38.5t30.5 -110.5q0 -116 -46 -171t-118 -55q-12 0 -12 11v38q0 13 12 13q32 0 58 27t26 81l-4 25q-10 -10 -39 -10q-36 0 -62 26t-26 68z" />
<glyph unicode="&#x201c;" horiz-adv-x="745" d="M102 1366q0 115 45.5 170t116.5 55q15 0 15 -10v-39q0 -12 -15 -12q-32 0 -58 -27.5t-26 -81.5l4 -24q12 10 39 10q38 0 64 -26t26 -68q0 -41 -28.5 -68.5t-69.5 -27.5q-53 0 -83 39t-30 110zM436 1366q0 116 45 170.5t117 54.5q14 0 14 -10v-39q0 -12 -14 -12 q-32 0 -58 -27.5t-26 -81.5l4 -24q10 10 39 10q36 0 62 -26t26 -68q0 -41 -28 -68.5t-68 -27.5q-53 0 -83 39t-30 110z" />
<glyph unicode="&#x201d;" horiz-adv-x="753" d="M111 1425q0 41 28 69t68 28q53 0 82.5 -39t29.5 -111q0 -116 -44.5 -170.5t-116.5 -54.5q-15 0 -15 10v39q0 12 15 12q32 0 58 27.5t26 81.5l-4 24q-10 -10 -39 -10q-36 0 -62 26t-26 68zM442 1425q0 41 29 69t70 28q53 0 82.5 -39t29.5 -111q0 -116 -45 -170.5 t-116 -54.5q-15 0 -15 10v39q0 12 15 12q32 0 57.5 27.5t25.5 81.5l-4 24q-12 -10 -39 -10q-37 0 -63.5 26.5t-26.5 67.5z" />
<glyph unicode="&#x201e;" horiz-adv-x="780" d="M133 80q0 41 28 68.5t68 27.5q54 0 84.5 -38.5t30.5 -110.5q0 -116 -46 -171t-118 -55q-12 0 -12 11v38q0 13 12 13q32 0 58 27t26 81l-4 25q-10 -10 -39 -10q-36 0 -62 26t-26 68zM442 80q0 41 28.5 68.5t68.5 27.5q53 0 82.5 -39t29.5 -110q0 -116 -45 -171t-117 -55 q-14 0 -14 11v38q0 13 14 13q32 0 58 27t26 81l-4 25q-10 -10 -39 -10q-36 0 -62 26t-26 68z" />
<glyph unicode="&#x2022;" horiz-adv-x="743" d="M180 686q0 90 50.5 144.5t140.5 54.5q87 0 139.5 -55t52.5 -144q0 -91 -52 -144t-140 -53q-91 0 -141 52.5t-50 144.5z" />
<glyph unicode="&#x2026;" horiz-adv-x="958" d="M131 82q0 40 28 68t68 28q41 0 70 -28t29 -68q0 -41 -28.5 -68.5t-70.5 -27.5q-40 0 -68 27.5t-28 68.5zM385 82q0 40 27.5 68t68.5 28q40 0 68.5 -28t28.5 -68q0 -41 -28.5 -68.5t-68.5 -27.5q-41 0 -68.5 27.5t-27.5 68.5zM635 82q0 40 27.5 68t68.5 28q40 0 68 -28 t28 -68q0 -41 -28 -68.5t-68 -27.5q-41 0 -68.5 27.5t-27.5 68.5z" />
<glyph unicode="&#x202f;" horiz-adv-x="407" />
<glyph unicode="&#x205f;" horiz-adv-x="509" />
<glyph unicode="&#x20ac;" horiz-adv-x="1431" d="M82 530v76q0 25 24 25h136q-6 50 -6 100q0 28 4 90h-134q-24 0 -24 25v74q0 26 24 26h154q60 241 240.5 389t433.5 148q207 0 387 -119q18 -15 4 -35l-74 -88q-14 -21 -34 -4q-113 82 -279 82q-170 -1 -298.5 -104t-184.5 -269h549q24 0 24 -26v-74q0 -25 -24 -25h-578 q-4 -58 -4 -86q0 -60 8 -104h455q24 0 24 -25v-76q0 -24 -24 -24h-424q59 -159 185.5 -256.5t291.5 -97.5q170 0 279 79q20 17 34 -4l74 -88q17 -20 -4 -37q-176 -116 -387 -116q-249 0 -428 142.5t-242 377.5h-158q-24 0 -24 24z" />
<glyph unicode="&#x2122;" horiz-adv-x="2224" d="M121 1249v207q0 6 5 10t11 4h772q17 0 17 -14v-207q0 -16 -17 -16h-80q-16 0 -16 16v111h-221v-660h92q16 0 16 -16v-78q0 -16 -16 -16h-317q-17 0 -17 16v78q0 16 17 16h94v660h-228v-111q0 -16 -16 -16h-80q-16 0 -16 16zM1051 604v82q0 14 14 14h90v660h-90 q-14 0 -14 14v82q0 14 14 14h211q42 0 57 -40l180 -439l52 -147h2q28 90 53 147l176 439q15 40 59 40h213q15 0 15 -14v-82q0 -14 -15 -14h-90v-660h90q15 0 15 -14v-82q0 -14 -15 -14h-296q-15 0 -15 14v82q0 14 15 14h79v588h-2l-229 -573q-14 -39 -55 -39q-40 0 -52 39 l-231 573h-2v-588h80q14 0 14 -14v-82q0 -14 -14 -14h-295q-14 0 -14 14z" />
<glyph unicode="&#xe000;" horiz-adv-x="1003" d="M0 0v1004h1004v-1004h-1004z" />
</font>
</defs>
</svg>
